# This file uses meters as units for non-parametric coordinates.

mtllib MediumTube.mtl
g default
v 2331.606066 94.969785 -973.171998
v 2323.499329 94.969785 -984.329962
v 2311.555114 94.969785 -991.225960
v 2297.838673 94.969785 -992.667610
v 2284.721699 94.969785 -988.405670
v 2274.472243 94.969785 -979.177018
v 2268.862532 94.969785 -966.577401
v 2268.862532 94.969785 -952.785407
v 2274.472239 94.969785 -940.185786
v 2284.721686 94.969785 -930.957131
v 2297.838664 94.969785 -926.695191
v 2311.555110 94.969785 -928.136830
v 2323.499329 94.969785 -935.032830
v 2331.606074 94.969785 -946.190795
v 2334.473586 94.969785 -959.681401
v 2331.606066 514.795561 -973.171998
v 2323.499329 514.795561 -984.329962
v 2311.555114 514.795561 -991.225960
v 2297.838673 514.795561 -992.667610
v 2284.721699 514.795561 -988.405670
v 2274.472243 514.795561 -979.177018
v 2268.862532 514.795561 -966.577401
v 2268.862532 514.795561 -952.785407
v 2274.472239 514.795561 -940.185786
v 2284.721686 514.795561 -930.957131
v 2297.838664 514.795561 -926.695191
v 2311.555110 514.795561 -928.136830
v 2323.499329 514.795561 -935.032830
v 2331.606074 514.795561 -946.190795
v 2334.473586 514.795561 -959.681401
v 2301.305658 94.969785 -959.681401
v 2301.305658 514.795561 -959.681401
vt 0.865156 0.145964
vt 0.805272 0.063532
vt 0.717026 0.012587
vt 0.615685 0.001935
vt 0.518786 0.033419
vt 0.443063 0.101601
vt 0.401625 0.194685
vt 0.401625 0.296578
vt 0.443063 0.389665
vt 0.518786 0.457841
vt 0.615685 0.489325
vt 0.717026 0.478678
vt 0.805272 0.427730
vt 0.865156 0.345296
vt 0.886345 0.245633
vt 0.001992 0.002349
vt 0.028129 0.002349
vt 0.054259 0.002349
vt 0.080402 0.002349
vt 0.106545 0.002349
vt 0.132681 0.002349
vt 0.158818 0.002349
vt 0.184955 0.002349
vt 0.211085 0.002349
vt 0.237222 0.002349
vt 0.263365 0.002349
vt 0.289502 0.002349
vt 0.315632 0.002349
vt 0.341769 0.002349
vt 0.367905 0.002349
vt 0.394048 0.002349
vt 0.001992 0.591911
vt 0.028129 0.591911
vt 0.054259 0.591911
vt 0.080402 0.591911
vt 0.106545 0.591911
vt 0.132681 0.591911
vt 0.158818 0.591911
vt 0.184955 0.591911
vt 0.211085 0.591911
vt 0.237222 0.591911
vt 0.263365 0.591911
vt 0.289502 0.591911
vt 0.315632 0.591911
vt 0.341769 0.591911
vt 0.367905 0.591911
vt 0.394048 0.591911
vt 0.976825 0.626267
vt 0.916941 0.543833
vt 0.828689 0.492885
vt 0.727373 0.482235
vt 0.630456 0.513719
vt 0.554739 0.581901
vt 0.513288 0.674985
vt 0.513288 0.776878
vt 0.554739 0.869962
vt 0.630456 0.938143
vt 0.727373 0.969630
vt 0.828689 0.958975
vt 0.916941 0.908031
vt 0.976825 0.825598
vt 0.998008 0.725933
vt 0.641304 0.235831
vt 0.752985 0.716134
vn 0.913545 0.000000 -0.406737
vn 0.669131 0.000000 -0.743145
vn 0.669131 0.000000 -0.743145
vn 0.913545 0.000000 -0.406737
vn 0.309017 0.000000 -0.951057
vn 0.309017 0.000000 -0.951057
vn -0.104528 0.000000 -0.994522
vn -0.104528 0.000000 -0.994522
vn -0.499999 0.000000 -0.866026
vn -0.499999 0.000000 -0.866026
vn -0.809017 0.000000 -0.587785
vn -0.809017 0.000000 -0.587785
vn -0.978148 0.000000 -0.207912
vn -0.978148 0.000000 -0.207912
vn -0.978148 0.000000 0.207912
vn -0.978148 0.000000 0.207912
vn -0.809017 0.000000 0.587785
vn -0.809017 0.000000 0.587785
vn -0.500000 0.000000 0.866026
vn -0.500000 0.000000 0.866026
vn -0.104528 0.000000 0.994522
vn -0.104528 0.000000 0.994522
vn 0.309016 0.000000 0.951057
vn 0.309016 0.000000 0.951057
vn 0.669131 0.000000 0.743145
vn 0.669131 0.000000 0.743145
vn 0.913545 0.000000 0.406737
vn 0.913545 0.000000 0.406737
vn 1.000000 0.000000 -0.000000
vn 1.000000 0.000000 -0.000000
vn 0.000000 -1.000000 0.000001
vn 0.000000 -1.000000 0.000000
vn 0.000000 -1.000000 0.000000
vn 0.000000 -1.000000 0.000001
vn 0.000000 -1.000000 0.000000
vn 0.000000 -1.000000 0.000000
vn 0.000000 -1.000000 0.000000
vn 0.000000 -1.000000 0.000000
vn 0.000000 -1.000000 0.000000
vn 0.000000 -1.000000 0.000001
vn 0.000000 -1.000000 0.000001
vn 0.000000 -1.000000 0.000000
vn 0.000000 -1.000000 0.000000
vn 0.000000 -1.000000 0.000000
vn 0.000000 -1.000000 0.000000
vn 0.000000 -1.000000 0.000000
vn 0.000000 1.000000 -0.000001
vn 0.000000 1.000000 0.000001
vn 0.000000 1.000000 -0.000000
vn 0.000000 1.000000 0.000001
vn 0.000000 1.000000 -0.000001
vn 0.000000 1.000000 0.000000
vn 0.000000 1.000000 -0.000001
vn 0.000000 1.000000 -0.000001
vn 0.000000 1.000000 0.000001
vn 0.000000 1.000000 0.000001
vn 0.000000 1.000000 0.000001
vn 0.000000 1.000000 0.000001
vn 0.000000 1.000000 -0.000001
vn 0.000000 1.000000 -0.000001
vn 0.000000 1.000000 0.000000
vn 0.000000 1.000000 -0.000001
s 1
g pCylinder17
usemtl initialShadingGroup
f 1/16/1 2/17/2 17/33/3 16/32/4
f 2/17/2 3/18/5 18/34/6 17/33/3
f 3/18/5 4/19/7 19/35/8 18/34/6
f 4/19/7 5/20/9 20/36/10 19/35/8
f 5/20/9 6/21/11 21/37/12 20/36/10
f 6/21/11 7/22/13 22/38/14 21/37/12
f 7/22/13 8/23/15 23/39/16 22/38/14
f 8/23/15 9/24/17 24/40/18 23/39/16
f 9/24/17 10/25/19 25/41/20 24/40/18
f 10/25/19 11/26/21 26/42/22 25/41/20
f 11/26/21 12/27/23 27/43/24 26/42/22
f 12/27/23 13/28/25 28/44/26 27/43/24
f 13/28/25 14/29/27 29/45/28 28/44/26
f 14/29/27 15/30/29 30/46/30 29/45/28
f 15/30/29 1/31/1 16/47/4 30/46/30
s 2
f 2/2/31 1/1/32 31/63/33
f 3/3/34 2/2/31 31/63/33
f 4/4/35 3/3/34 31/63/33
f 5/5/36 4/4/35 31/63/33
f 6/6/37 5/5/36 31/63/33
f 7/7/38 6/6/37 31/63/33
f 8/8/39 7/7/38 31/63/33
f 9/9/40 8/8/39 31/63/33
f 10/10/41 9/9/40 31/63/33
f 11/11/42 10/10/41 31/63/33
f 12/12/43 11/11/42 31/63/33
f 13/13/44 12/12/43 31/63/33
f 14/14/45 13/13/44 31/63/33
f 15/15/46 14/14/45 31/63/33
f 1/1/32 15/15/46 31/63/33
s 3
f 16/61/47 17/60/48 32/64/49
f 17/60/48 18/59/50 32/64/49
f 18/59/50 19/58/51 32/64/49
f 19/58/51 20/57/52 32/64/49
f 20/57/52 21/56/53 32/64/49
f 21/56/53 22/55/54 32/64/49
f 22/55/54 23/54/55 32/64/49
f 23/54/55 24/53/56 32/64/49
f 24/53/56 25/52/57 32/64/49
f 25/52/57 26/51/58 32/64/49
f 26/51/58 27/50/59 32/64/49
f 27/50/59 28/49/60 32/64/49
f 28/49/60 29/48/61 32/64/49
f 29/48/61 30/62/62 32/64/49
f 30/62/62 16/61/47 32/64/49
