# This file uses meters as units for non-parametric coordinates.

mtllib Stone3.mtl
g default
v 228.159691 138.898617 -106.322545
v 43.907687 356.233093 -59.910952
v 178.561309 360.215594 -229.288305
v 205.026667 138.898600 -334.394632
v 108.936657 -38.601096 -141.709243
v -20.914957 29.197751 21.627806
v -256.432841 111.171758 -120.071692
v -166.854958 360.215594 -218.958689
v 41.554241 370.857155 -428.676450
v 36.752256 29.197739 -422.636135
v -108.936661 -38.601096 -167.561520
v -163.337039 138.898617 -284.486990
vt 1.000000 0.500000
vt 0.838104 0.676208
vt 0.088104 0.823792
vt 0.176208 0.500000
vt 0.088104 0.176208
vt 0.838104 0.323792
vt 0.676208 0.500000
vt 0.588104 0.823792
vt 0.338104 0.676208
vt 0.338104 0.323792
vt 0.588104 0.176208
vt 0.500000 0.500000
vt 1.088104 0.823792
vt 1.176208 0.500000
vt 1.088104 0.176208
vn 0.688004 0.464144 0.557871
vn 0.688005 0.464144 0.557871
vn 0.688004 0.464144 0.557871
vn 0.981323 0.164618 -0.099534
vn 0.981323 0.164618 -0.099534
vn 0.981323 0.164618 -0.099534
vn 0.834875 -0.543887 -0.084680
vn 0.834875 -0.543887 -0.084680
vn 0.834875 -0.543887 -0.084680
vn 0.559926 -0.506771 0.655490
vn 0.559926 -0.506771 0.655490
vn 0.559926 -0.506771 0.655490
vn 0.400322 0.146201 0.904637
vn 0.400322 0.146201 0.904636
vn 0.400322 0.146201 0.904636
vn 0.000720 0.999710 0.024078
vn 0.000720 0.999710 0.024078
vn 0.000720 0.999710 0.024078
vn 0.783278 0.340639 -0.520039
vn 0.783278 0.340639 -0.520039
vn 0.783278 0.340639 -0.520039
vn 0.631041 -0.701390 -0.331420
vn 0.631041 -0.701390 -0.331420
vn 0.631041 -0.701390 -0.331420
vn -0.042045 -0.934172 0.354336
vn -0.042045 -0.934172 0.354336
vn -0.042045 -0.934172 0.354336
vn 0.001562 0.998634 0.052225
vn 0.001562 0.998634 0.052225
vn 0.001562 0.998634 0.052225
vn 0.475625 -0.022231 -0.879367
vn 0.475625 -0.022231 -0.879367
vn 0.475625 -0.022231 -0.879367
vn 0.028651 -0.969988 -0.241459
vn 0.028651 -0.969988 -0.241459
vn 0.028651 -0.969988 -0.241459
vn -0.535748 -0.684409 0.494529
vn -0.535748 -0.684409 0.494529
vn -0.535748 -0.684409 0.494529
vn -0.872210 0.126067 -0.472606
vn -0.872210 0.126067 -0.472606
vn -0.872210 0.126067 -0.472606
vn -0.700949 0.192215 -0.686822
vn -0.700949 0.192215 -0.686822
vn -0.700949 0.192215 -0.686822
vn -0.570568 -0.006499 -0.821225
vn -0.570568 -0.006499 -0.821225
vn -0.570568 -0.006499 -0.821225
vn -0.657823 -0.544440 -0.520436
vn -0.657823 -0.544440 -0.520436
vn -0.657823 -0.544440 -0.520436
vn -0.695469 -0.531608 -0.483441
vn -0.695469 -0.531608 -0.483441
vn -0.695469 -0.531608 -0.483441
vn -0.467000 0.375849 0.800405
vn -0.467000 0.375849 0.800405
vn -0.467000 0.375849 0.800405
vn -0.467000 0.375849 0.800405
s off
g pPlatonic9
usemtl initialShadingGroup
f 1/1/1 3/13/2 2/2/3
f 1/1/4 4/14/5 3/13/6
f 1/1/7 5/15/8 4/14/9
f 1/1/10 6/6/11 5/15/12
f 1/1/13 2/2/14 6/6/15
f 2/2/16 3/13/17 8/8/18
f 3/3/19 4/4/20 9/9/21
f 4/4/22 5/5/23 10/10/24
f 5/15/25 6/6/26 11/11/27
f 3/3/28 9/9/29 8/8/30
f 4/4/31 10/10/32 9/9/33
f 5/5/34 11/11/35 10/10/36
f 6/6/37 7/7/38 11/11/39
f 7/7/40 8/8/41 12/12/42
f 8/8/43 9/9/44 12/12/45
f 9/9/46 10/10/47 12/12/48
f 10/10/49 11/11/50 12/12/51
f 11/11/52 7/7/53 12/12/54
f 6/6/55 2/2/56 8/8/57 7/7/58
