# This file uses meters as units for non-parametric coordinates.

mtllib Workshop.mtl
g default
v -900.000122 100.000000 -1003.368517
v 899.999878 100.000000 -1003.368517
v -900.000122 500.000000 -1003.368517
v 899.999878 500.000000 -1003.368517
v -900.000122 500.000000 -1603.368517
v 900.000000 500.000000 -1603.368517
v -900.000122 100.000000 -1603.368517
v 900.000000 100.000000 -1603.368517
v -900.000122 700.000000 -1303.368517
v 899.999878 700.000000 -1303.368517
v 900.000000 500.000000 -1153.368517
v 900.000000 100.000000 -1153.368517
v 900.000000 500.000000 -1453.368639
v 900.000000 100.000000 -1453.368639
v -870.000061 100.000000 -1003.368517
v -869.999939 100.000000 -1603.368517
v -870.000061 500.000000 -1603.368517
v -870.000061 700.000000 -1303.368517
v -870.000061 500.000000 -1003.368517
v 870.000183 100.000000 -1003.368517
v 870.000305 100.000000 -1603.368517
v 870.000183 500.000000 -1603.368517
v 870.000183 700.000000 -1303.368517
v 870.000183 500.000000 -1003.368517
v -840.999939 100.000000 -1003.368517
v -840.999939 500.000000 -1003.368517
v -840.999939 700.000000 -1303.368517
v -840.999817 500.000000 -1603.368517
v -840.999817 100.000000 -1603.368517
v 841.000488 100.000000 -1003.368517
v 841.000488 500.000000 -1003.368517
v 841.000488 700.000000 -1303.368517
v 841.000488 500.000000 -1603.368517
v 841.000610 100.000000 -1603.368517
v -560.665955 100.000000 -1003.368517
v -560.665955 500.000000 -1003.368517
v -560.665955 700.000000 -1303.368517
v -560.665833 500.000000 -1603.368517
v -560.665833 100.000000 -1603.368517
v 560.667175 100.000000 -1003.368517
v 560.667175 500.000000 -1003.368517
v 560.667175 700.000000 -1303.368517
v 560.667297 500.000000 -1603.368517
v 560.667297 100.000000 -1603.368517
v -869.999939 100.000000 -1623.368517
v -869.999939 508.320496 -1618.915514
v -840.999817 508.320496 -1618.915514
v -840.999817 100.000000 -1623.368517
v -870.000061 716.640991 -1303.368517
v -840.999939 716.640991 -1303.368517
v -870.000061 508.320496 -987.821520
v -840.999939 508.320496 -987.821520
v -870.000061 100.000000 -983.368517
v -840.999939 100.000000 -983.368517
v 841.000488 100.000000 -983.368517
v 841.000488 508.320496 -987.821520
v 870.000183 100.000000 -983.368517
v 870.000183 508.320496 -987.821520
v 841.000488 716.640991 -1303.368517
v 870.000183 716.640991 -1303.368517
v 841.000488 508.320496 -1618.915514
v 870.000305 508.320496 -1618.915514
v 841.000610 100.000000 -1623.368517
v 870.000305 100.000000 -1623.368517
v -523.288208 100.000000 -1003.368517
v -523.288208 500.000000 -1003.368517
v -523.288208 700.000000 -1303.368517
v -523.288086 500.000000 -1603.368517
v -523.288086 100.000000 -1603.368517
v 523.289124 100.000000 -1003.368517
v 523.289124 500.000000 -1003.368517
v 523.289124 700.000000 -1303.368517
v 523.289124 500.000000 -1603.368517
v 523.289246 100.000000 -1603.368517
v -560.665955 100.000000 -983.368517
v -560.665955 508.320496 -987.821520
v -523.288208 100.000000 -983.368517
v -523.288208 508.320496 -987.821520
v -560.665955 716.640991 -1303.368517
v -523.288208 716.640991 -1303.368517
v -560.665955 508.320496 -1618.915514
v -523.288208 508.320496 -1618.915514
v -560.665833 100.000000 -1623.368517
v -523.288086 100.000000 -1623.368517
v 523.289124 100.000000 -983.368517
v 523.289124 508.320496 -987.821520
v 560.667175 100.000000 -983.368517
v 560.667175 508.320496 -987.821520
v 523.289124 716.640991 -1303.368517
v 560.667175 716.640991 -1303.368517
v 523.289246 508.320496 -1618.915514
v 560.667175 508.320496 -1618.915514
v 523.289246 100.000000 -1623.368517
v 560.667297 100.000000 -1623.368517
v -209.315002 100.000000 -1003.368517
v -209.315002 500.000000 -1003.368517
v 209.316238 100.000000 -1003.368517
v 209.316238 500.000000 -1003.368517
v -193.315002 100.000000 -1003.368517
v -193.315002 484.000000 -1003.368517
v 193.316238 100.000000 -1003.368517
v 193.316238 484.000000 -1003.368517
v -900.000122 100.000000 -1153.368517
v -900.000122 500.000000 -1153.368517
v -900.000122 100.000000 -1453.368639
v -900.000122 500.000000 -1453.368639
vt 0.740677 0.205779
vt 0.725357 0.202012
vt 0.725623 0.200864
vt 0.741127 0.204581
vt 0.765157 0.210185
vt 0.752268 0.210986
vt 0.752429 0.210043
vt 0.765113 0.208889
vt 0.780997 0.212026
vt 0.768160 0.192621
vt 0.747251 0.203911
vt 0.759504 0.206063
vt 0.750309 0.284405
vt 0.726509 0.279616
vt 0.739189 0.278674
vt 0.765670 0.288655
vt 0.741203 0.300142
vt 0.744163 0.284930
vt 0.762333 0.191067
vt 0.749716 0.188658
vt 0.732007 0.282524
vt 0.728683 0.297383
vt 0.722912 0.295649
vt 0.750806 0.283217
vt 0.766027 0.287525
vt 0.739408 0.277742
vt 0.726493 0.278328
vt 0.710743 0.276340
vt 0.766266 0.286769
vt 0.751020 0.282633
vt 0.751463 0.281496
vt 0.766615 0.285656
vt 0.739517 0.277269
vt 0.739718 0.276331
vt 0.726515 0.277711
vt 0.726545 0.276500
vt 0.710824 0.275552
vt 0.710948 0.274391
vt 0.726552 0.275852
vt 0.711038 0.273597
vt 0.712469 0.262424
vt 0.727955 0.264629
vt 0.739802 0.275950
vt 0.741609 0.266283
vt 0.751707 0.280891
vt 0.755114 0.269918
vt 0.766848 0.284890
vt 0.770147 0.273929
vt 0.740081 0.207523
vt 0.725221 0.203752
vt 0.725521 0.202721
vt 0.740483 0.206371
vt 0.752007 0.212405
vt 0.752173 0.211461
vt 0.765170 0.212035
vt 0.765155 0.210810
vt 0.780839 0.213987
vt 0.780934 0.212818
vt 0.728048 0.264039
vt 0.712568 0.261624
vt 0.712781 0.260118
vt 0.728270 0.262572
vt 0.741716 0.265799
vt 0.742006 0.264475
vt 0.755259 0.269336
vt 0.755617 0.267890
vt 0.770359 0.273127
vt 0.770751 0.271612
vt 0.736872 0.219059
vt 0.721744 0.215184
vt 0.724787 0.204325
vt 0.739862 0.208137
vt 0.750349 0.222523
vt 0.751939 0.212789
vt 0.764082 0.224089
vt 0.765186 0.212692
vt 0.779609 0.226184
vt 0.780768 0.214789
vt 0.728359 0.261980
vt 0.712897 0.259319
vt 0.715071 0.246870
vt 0.730488 0.249742
vt 0.742112 0.264020
vt 0.733679 0.233752
vt 0.736274 0.221650
vt 0.749873 0.224797
vt 0.755762 0.267307
vt 0.763761 0.226784
vt 0.770944 0.270804
vt 0.779243 0.229391
vt 0.736411 0.221073
vt 0.721210 0.217437
vt 0.721555 0.215965
vt 0.736742 0.219637
vt 0.749971 0.224339
vt 0.750247 0.223009
vt 0.763833 0.226181
vt 0.764008 0.224689
vt 0.779344 0.228564
vt 0.779526 0.227008
vt 0.721038 0.218220
vt 0.729993 0.249014
vt 0.715180 0.246235
vt 0.718220 0.231103
vt 0.732940 0.234233
vt 0.718347 0.230475
vt 0.781095 0.210844
vt 0.747214 0.300771
vt 0.743684 0.188220
vt 0.710616 0.277514
vn 0.000000 0.000000 1.000000
vn 0.000000 0.000000 1.000000
vn 0.000000 0.000000 1.000000
vn 0.000000 0.000000 1.000000
vn 0.000000 0.832050 -0.554701
vn 0.000000 1.000000 -0.000001
vn 0.000000 1.000000 -0.000001
vn 0.000000 0.832050 -0.554701
vn 0.000000 0.000000 -1.000000
vn 0.000000 0.000000 -1.000000
vn 0.000000 0.000000 -1.000000
vn 0.000000 0.000000 -1.000000
vn 1.000000 0.000001 0.000000
vn 1.000000 0.000000 0.000000
vn 1.000000 0.000000 0.000000
vn 0.000000 0.832050 0.554700
vn 0.000000 0.832050 0.554700
vn -1.000000 0.000000 0.000000
vn -1.000000 0.000000 0.000000
vn -1.000000 0.000000 0.000000
vn -1.000000 0.000000 0.000000
vn 1.000000 0.000000 0.000000
vn 1.000000 0.000000 0.000000
vn 1.000000 0.000000 0.000001
vn 1.000000 0.000000 0.000000
vn 1.000000 0.000000 0.000000
vn 1.000000 0.000000 0.000001
vn -1.000000 0.000000 0.000000
vn -1.000000 0.000000 0.000000
vn -1.000000 0.000000 0.000000
vn -1.000000 0.000000 0.000000
vn 0.000000 0.000000 -1.000000
vn 0.000000 0.000000 -1.000000
vn 0.000000 0.000000 -1.000000
vn 0.000000 0.000000 -1.000000
vn 0.000000 1.000000 0.000000
vn 0.000000 1.000000 0.000000
vn 0.000000 0.832050 -0.554700
vn 0.000000 0.832050 -0.554700
vn 0.000000 0.832050 0.554700
vn 0.000000 0.832050 0.554700
vn 0.000000 0.000000 1.000000
vn 0.000000 0.000000 1.000000
vn 0.000000 0.000000 1.000000
vn 0.000000 0.000000 1.000000
vn 0.000000 0.010905 -0.999941
vn 0.000000 0.010905 -0.999941
vn 0.000000 0.010905 -0.999941
vn 0.000000 0.010905 -0.999941
vn 0.000000 0.834536 -0.550953
vn 0.000000 1.000000 0.000000
vn 0.000000 1.000000 -0.000000
vn 0.000000 0.834536 -0.550953
vn 0.000000 0.834537 0.550952
vn 0.000000 0.834537 0.550952
vn 0.000000 0.010905 0.999941
vn 0.000000 0.010905 0.999941
vn 0.000000 0.010905 0.999941
vn 0.000000 0.010905 0.999941
vn 0.000000 0.000000 1.000000
vn 0.000000 0.000000 1.000000
vn 0.000000 0.000000 1.000000
vn 0.000000 0.000000 1.000000
vn 0.000000 1.000000 0.000000
vn 0.000000 0.832050 0.554700
vn 0.000000 0.832050 0.554700
vn 0.000000 1.000000 -0.000000
vn 0.000000 0.832050 -0.554700
vn 0.000000 0.832050 -0.554700
vn 0.000000 0.000000 -1.000000
vn 0.000000 0.000000 -1.000000
vn 0.000000 0.000000 -1.000000
vn 0.000000 0.000000 -1.000000
vn 0.000000 0.010905 0.999941
vn 0.000000 0.010905 0.999941
vn 0.000000 0.010905 0.999941
vn 0.000000 0.010905 0.999941
vn 0.000000 1.000000 -0.000001
vn 0.000000 0.834537 0.550952
vn 0.000000 0.834537 0.550952
vn 0.000000 1.000000 -0.000001
vn 0.000000 0.834537 -0.550952
vn 0.000000 0.834537 -0.550952
vn 0.000000 0.010905 -0.999941
vn 0.000000 0.010905 -0.999941
vn 0.000000 0.010905 -0.999941
vn 0.000000 0.010905 -0.999941
vn 0.000000 0.010905 0.999941
vn 0.000000 0.010905 0.999941
vn 0.000000 0.010905 0.999941
vn 0.000000 0.010905 0.999941
vn 0.000000 1.000000 0.000000
vn 0.000000 0.834537 0.550952
vn 0.000000 0.834537 0.550952
vn 0.000000 1.000000 0.000000
vn 0.000000 0.834537 -0.550952
vn 0.000000 0.834537 -0.550952
vn 0.000000 0.010905 -0.999941
vn 0.000000 0.010905 -0.999941
vn 0.000000 0.010905 -0.999941
vn 0.000000 0.010905 -0.999941
vn 0.000000 0.000000 1.000000
vn 0.000000 0.000000 1.000000
vn 0.000000 0.000000 1.000000
vn 0.000000 0.000000 1.000000
vn 0.000000 1.000000 0.000000
vn 0.000000 0.832050 0.554700
vn 0.000000 0.832050 0.554700
vn 0.000000 1.000000 0.000000
vn 0.000000 0.832050 -0.554700
vn 0.000000 0.832050 -0.554700
vn 0.000000 0.000000 -1.000000
vn 0.000000 0.000000 -1.000000
vn 0.000000 0.000000 -1.000000
vn 0.000000 0.000000 -1.000000
vn -1.000000 -0.000000 -0.000003
vn -1.000000 0.000002 -0.000003
vn -1.000000 0.000002 -0.000003
vn -1.000000 -0.000000 -0.000003
vn 1.000000 0.000000 0.000000
vn 1.000000 0.000000 0.000000
vn 1.000000 0.000000 0.000000
vn 1.000000 0.000000 0.000000
vn -1.000000 0.000003 -0.000001
vn -1.000000 0.000003 -0.000001
vn 1.000000 -0.000001 0.000000
vn 1.000000 -0.000001 0.000000
vn -1.000000 0.000000 0.000000
vn -1.000000 0.000000 0.000000
vn 1.000000 -0.000001 0.000000
vn 1.000000 -0.000001 0.000000
vn -1.000000 0.000000 0.000000
vn -1.000000 0.000000 0.000000
vn 1.000000 0.000000 0.000000
vn 1.000000 0.000000 0.000000
vn -1.000000 0.000000 0.000000
vn -1.000000 0.000000 0.000000
vn -1.000000 0.000000 0.000000
vn -1.000000 0.000000 0.000000
vn 0.000000 -1.000000 0.000000
vn 0.000000 -1.000000 0.000000
vn 0.000000 -1.000000 0.000000
vn 0.000000 -1.000000 0.000000
vn 1.000000 0.000000 0.000000
vn 1.000000 0.000001 0.000000
vn 1.000000 0.000001 0.000000
vn 1.000000 0.000000 0.000000
vn -1.000000 0.000001 0.000000
vn -1.000000 0.000001 0.000000
vn 1.000000 0.000001 0.000001
vn 1.000000 0.000001 0.000001
vn -1.000000 0.000001 -0.000000
vn -1.000000 0.000001 -0.000000
vn 1.000000 0.000000 0.000003
vn 1.000000 0.000000 0.000003
vn -1.000000 -0.000000 -0.000000
vn -1.000000 -0.000000 -0.000000
vn 1.000000 0.000000 0.000003
vn 1.000000 0.000000 0.000003
vn 0.000000 0.000000 1.000000
vn 0.000000 0.000000 1.000000
vn 0.000000 0.000000 1.000000
vn 0.000000 0.000000 1.000000
vn 0.000000 0.969358 -0.245653
vn 0.000000 0.832050 0.554700
vn 0.000000 0.832050 0.554700
vn 0.000000 0.832050 -0.554700
vn 0.000000 0.969358 -0.245653
vn 0.000000 0.832050 -0.554700
vn 0.000000 0.000000 -1.000000
vn 0.000000 0.000000 -1.000000
vn 0.000000 0.000000 -1.000000
vn 0.000000 0.000000 -1.000000
vn 0.000000 0.010905 0.999941
vn 0.000000 0.010905 0.999941
vn 0.000000 0.010905 0.999941
vn 0.000000 0.010905 0.999941
vn 0.000000 1.000000 0.000001
vn 0.000000 0.834537 0.550952
vn 0.000000 0.834537 0.550952
vn 0.000000 1.000000 0.000000
vn 0.000000 0.834537 -0.550952
vn 0.000000 0.834537 -0.550952
vn 0.000000 0.010905 -0.999941
vn 0.000000 0.010905 -0.999941
vn 0.000000 0.010905 -0.999941
vn 0.000000 0.010905 -0.999941
vn -1.000000 0.000000 0.000000
vn -1.000000 0.000000 0.000000
vn -1.000000 0.000000 0.000000
vn -1.000000 0.000000 0.000000
vn 1.000000 0.000000 0.000000
vn 1.000000 -0.000001 0.000000
vn 1.000000 -0.000001 0.000000
vn 1.000000 0.000000 0.000000
vn -1.000000 -0.000002 0.000001
vn -1.000000 -0.000002 0.000001
vn 1.000000 0.000000 -0.000001
vn 1.000000 0.000000 -0.000001
vn -1.000000 -0.000001 0.000003
vn -1.000000 -0.000001 0.000003
vn 1.000000 0.000001 -0.000003
vn 1.000000 0.000001 -0.000003
vn -1.000000 -0.000000 0.000003
vn -1.000000 -0.000000 0.000003
vn 1.000000 0.000000 -0.000003
vn 1.000000 0.000000 -0.000003
vn -1.000000 0.000000 0.000000
vn -1.000000 0.000000 0.000000
vn -1.000000 0.000000 0.000000
vn -1.000000 0.000000 0.000000
vn 1.000000 0.000000 0.000000
vn 1.000000 0.000000 0.000000
vn 1.000000 0.000000 0.000000
vn 1.000000 0.000000 0.000000
vn -1.000000 0.000002 -0.000001
vn -1.000000 0.000002 -0.000001
vn 1.000000 0.000002 -0.000001
vn 1.000000 0.000002 -0.000001
vn -1.000000 0.000001 -0.000003
vn -1.000000 0.000001 -0.000003
vn 1.000000 0.000001 -0.000003
vn 1.000000 0.000001 -0.000003
vn -1.000000 -0.000000 -0.000003
vn -1.000000 -0.000000 -0.000003
vn 1.000000 0.000000 -0.000003
vn 1.000000 0.000000 -0.000003
vn 0.000000 0.000000 1.000000
vn 0.000000 0.000000 1.000000
vn 0.000000 0.000000 1.000000
vn 0.000000 0.000000 1.000000
vn 0.000000 0.000000 1.000000
vn 0.000000 0.000000 1.000000
vn 0.000000 0.000000 1.000000
vn 0.000000 0.000000 1.000000
vn 0.000000 0.832051 0.554700
vn 0.000000 0.832050 0.554700
vn -1.000000 0.000000 0.000000
vn -1.000000 0.000000 0.000000
vn -1.000000 0.000000 0.000000
vn -1.000000 0.000000 0.000000
vn -1.000000 0.000000 0.000000
vn -1.000000 0.000000 0.000000
vn -1.000000 0.000000 0.000000
vn -1.000000 0.000000 0.000000
vn -1.000000 0.000000 0.000000
vn -1.000000 0.000000 0.000000
vn -1.000000 0.000000 0.000000
s off
g Shipyard:polySurface1622 Shipyard:pCube109
usemtl Shipyard:blinn1SG
f 24/1/1 20/2/2 2/3/3 4/4/4
s 1
f 22/5/5 23/6/6 10/7/7 6/8/8
s off
f 21/9/9 22/5/10 6/8/11 8/107/12
s 2
f 10/7/13 13/12/14 6/8/15
s 1
f 23/6/6 24/1/16 4/4/17 10/7/7
s off
f 7/108/18 105/17/19 106/18/20 5/13/21
s 2
f 13/12/14 14/19/22 8/10/23 6/8/15
f 2/109/24 12/20/25 11/11/26 4/4/27
s off
f 104/21/28 103/22/29 1/23/30 3/14/31
s 2
f 11/11/26 12/20/25 14/19/22 13/12/14
s off
f 5/13/32 17/24/33 16/25/34 7/16/35
s 3
f 9/15/36 18/26/37 17/24/38 5/13/39
f 3/14/40 19/27/41 18/26/37 9/15/36
s off
f 1/110/42 15/28/43 19/27/44 3/14/45
f 45/29/46 46/30/47 47/31/48 48/32/49
s 4
f 46/30/50 49/33/51 50/34/52 47/31/53
f 49/33/51 51/35/54 52/36/55 50/34/52
s off
f 51/35/56 53/37/57 54/38/58 52/36/59
f 26/39/60 25/40/61 35/41/62 36/42/63
s 5
f 27/43/64 26/39/65 36/42/66 37/44/67
f 28/45/68 27/43/64 37/44/67 38/46/69
s off
f 29/47/70 28/45/71 38/46/72 39/48/73
f 56/49/74 55/50/75 57/51/76 58/52/77
s 6
f 59/53/78 56/49/79 58/52/80 60/54/81
f 61/55/82 59/53/78 60/54/81 62/56/83
s off
f 63/57/84 61/55/85 62/56/86 64/58/87
f 76/59/88 75/60/89 77/61/90 78/62/91
s 7
f 79/63/92 76/59/93 78/62/94 80/64/95
f 81/65/96 79/63/92 80/64/95 82/66/97
s off
f 83/67/98 81/65/99 82/66/100 84/68/101
f 41/69/102 40/70/103 30/71/104 31/72/105
s 8
f 42/73/106 41/69/107 31/72/108 32/74/109
f 43/75/110 42/73/106 32/74/109 33/76/111
s off
f 44/77/112 43/75/113 33/76/114 34/78/115
s 9
f 16/25/116 17/24/117 46/30/118 45/29/119
s 10
f 28/45/120 29/47/121 48/32/122 47/31/123
s 9
f 17/24/117 18/26/124 49/33/125 46/30/118
s 10
f 27/43/126 28/45/120 47/31/123 50/34/127
s 9
f 18/26/124 19/27/128 51/35/129 49/33/125
s 10
f 26/39/130 27/43/126 50/34/127 52/36/131
s 9
f 19/27/128 15/28/132 53/37/133 51/35/129
s 10
f 25/40/134 26/39/130 52/36/131 54/38/135
s 11
f 31/72/136 30/71/137 55/50/138 56/49/139
s off
f 30/71/140 20/2/141 57/51/142 55/50/143
s 12
f 20/2/144 24/1/145 58/52/146 57/51/147
s 11
f 32/74/148 31/72/136 56/49/139 59/53/149
s 12
f 24/1/145 23/6/150 60/54/151 58/52/146
s 11
f 33/76/152 32/74/148 59/53/149 61/55/153
s 12
f 23/6/150 22/5/154 62/56/155 60/54/151
s 11
f 34/78/156 33/76/152 61/55/153 63/57/157
s 12
f 22/5/154 21/9/158 64/58/159 62/56/155
s 13
f 66/79/160 65/80/161 95/81/162 96/82/163
s 14
f 72/86/164 98/84/165 71/85/166
f 68/87/167 67/83/168 72/86/164 73/88/169
s off
f 69/89/170 68/87/171 73/88/172 74/90/173
f 86/91/174 85/92/175 87/93/176 88/94/177
s 15
f 89/95/178 86/91/179 88/94/180 90/96/181
f 91/97/182 89/95/178 90/96/181 92/98/183
s off
f 93/99/184 91/97/185 92/98/186 94/100/187
s 16
f 36/42/188 35/41/189 75/60/190 76/59/191
s 17
f 65/80/192 66/79/193 78/62/194 77/61/195
s 16
f 37/44/196 36/42/188 76/59/191 79/63/197
s 17
f 66/79/193 67/83/198 80/64/199 78/62/194
s 16
f 38/46/200 37/44/196 79/63/197 81/65/201
s 17
f 67/83/198 68/87/202 82/66/203 80/64/199
s 16
f 39/48/204 38/46/200 81/65/201 83/67/205
s 17
f 68/87/202 69/89/206 84/68/207 82/66/203
s 18
f 71/85/208 70/101/209 85/92/210 86/91/211
s 19
f 40/70/212 41/69/213 88/94/214 87/93/215
s 18
f 72/86/216 71/85/208 86/91/211 89/95/217
s 19
f 41/69/213 42/73/218 90/96/219 88/94/214
s 18
f 73/88/220 72/86/216 89/95/217 91/97/221
s 19
f 42/73/218 43/75/222 92/98/223 90/96/219
s 18
f 74/90/224 73/88/220 91/97/221 93/99/225
s 19
f 43/75/222 44/77/226 94/100/227 92/98/223
s 13
f 100/102/228 99/103/229 101/104/230 102/105/231
f 98/84/232 97/106/233 70/101/234 71/85/235
f 96/82/163 95/81/162 99/103/229 100/102/228
f 97/106/233 98/84/232 102/105/231 101/104/230
f 98/84/232 96/82/163 100/102/228 102/105/231
s 14
f 67/83/168 66/79/236 96/82/237
f 67/83/168 96/82/237 98/84/165 72/86/164
s off
f 103/22/238 104/21/239 106/18/240 105/17/241
f 3/14/242 9/15/243 106/18/244 104/21/245
f 5/13/246 106/18/247 9/15/248
s 2
f 4/4/27 11/11/26 13/12/14 10/7/13
