# This file uses meters as units for non-parametric coordinates.

mtllib Container.mtl
g default
v -66.791382 99.953743 -468.624667
v -39.399841 99.953743 -468.624667
v -66.791382 130.007492 -468.624667
v -39.399841 130.007492 -468.624667
v -66.791382 130.007492 -526.955753
v -39.399841 130.007492 -526.955753
v -66.791260 99.953743 -526.955753
v -39.399719 99.953743 -526.955753
v -64.791382 130.007492 -470.624667
v -41.399658 130.007492 -470.624667
v -41.399658 130.007492 -524.955783
v -64.791382 130.007492 -524.955783
vt 0.855423 0.313894
vt 0.851509 0.337375
vt 0.847943 0.358776
vt 0.893517 0.366371
vt 0.897084 0.344970
vt 0.889604 0.389852
vt 0.852812 0.339197
vt 0.849766 0.357473
vt 0.892215 0.364548
vt 0.904563 0.300088
vt 0.900997 0.321489
vt 0.844030 0.382257
vt 0.893517 0.366371
vt 0.895260 0.346272
vt 0.824462 0.354862
vt 0.916998 0.370284
vt 0.858989 0.292493
vt 0.920565 0.348883
vt 0.828028 0.333461
vn 0.000000 0.000000 1.000000
vn 0.000000 0.000000 1.000000
vn 0.000000 0.000000 1.000000
vn 0.000000 0.000000 1.000000
vn 0.000000 0.000000 -1.000000
vn 0.000000 0.000000 -1.000000
vn 0.000000 0.000000 -1.000000
vn 0.000000 0.000000 -1.000000
vn 0.000000 -1.000000 0.000000
vn 0.000000 -1.000000 0.000000
vn 0.000000 -1.000000 0.000000
vn 0.000000 -1.000000 0.000000
vn 1.000000 0.000000 0.000000
vn 1.000000 0.000000 0.000000
vn 1.000000 0.000000 0.000000
vn 1.000000 0.000000 0.000000
vn -1.000000 0.000000 0.000000
vn -1.000000 0.000000 0.000000
vn -1.000000 0.000000 0.000000
vn -1.000000 0.000000 0.000000
vn 0.000000 1.000000 0.000001
vn 0.000000 1.000000 0.000001
vn 0.000000 1.000000 0.000001
vn 0.000000 1.000000 0.000001
vn 0.000000 1.000000 0.000001
vn 0.000000 1.000000 -0.000001
vn 0.000000 1.000000 -0.000001
vn 0.000000 1.000000 0.000001
vn 0.000000 1.000000 -0.000001
vn 0.000000 1.000000 -0.000001
vn 0.000000 1.000000 -0.000001
vn 0.000000 1.000000 -0.000001
vn 0.000000 1.000000 -0.000001
vn 0.000000 1.000000 0.000001
vn 0.000000 1.000000 0.000001
vn 0.000000 1.000000 -0.000001
vn 0.000000 1.000000 0.000000
vn 0.000000 1.000000 0.000000
vn 0.000000 1.000000 0.000000
vn 0.000000 1.000000 0.000000
s off
g polySurface65 Shipyard:pCube109
usemtl Shipyard:blinn1SG
f 1/15/1 2/19/2 4/2/3 3/3/4
f 5/13/5 6/5/6 8/18/7 7/16/8
f 7/10/9 8/11/10 2/1/11 1/17/12
f 2/1/13 8/11/14 6/5/15 4/2/16
f 7/6/17 1/12/18 3/3/19 5/4/20
f 3/3/21 4/2/22 10/7/23 9/8/24
f 4/2/25 6/5/26 11/14/27 10/7/28
f 6/5/29 5/13/30 12/9/31 11/14/32
f 5/4/33 3/3/34 9/8/35 12/9/36
f 9/8/37 10/7/38 11/14/39 12/9/40
