# This file uses meters as units for non-parametric coordinates.

mtllib SmallTube.mtl
g default
v 2078.677484 92.037463 -1084.279075
v 2073.427836 92.037463 -1091.504594
v 2065.693167 92.037463 -1095.970209
v 2056.810864 92.037463 -1096.903773
v 2048.316757 92.037463 -1094.143885
v 2041.679556 92.037463 -1088.167722
v 2038.046898 92.037463 -1080.008637
v 2038.046898 92.037463 -1071.077410
v 2041.679554 92.037463 -1062.918322
v 2048.316748 92.037463 -1056.942158
v 2056.810858 92.037463 -1054.182270
v 2065.693165 92.037463 -1055.115826
v 2073.427836 92.037463 -1059.581442
v 2078.677489 92.037463 -1066.806962
v 2080.534392 92.037463 -1075.543021
v 2078.677484 363.902404 -1084.279075
v 2073.427836 363.902404 -1091.504594
v 2065.693167 363.902404 -1095.970209
v 2056.810864 363.902404 -1096.903773
v 2048.316757 363.902404 -1094.143885
v 2041.679556 363.902404 -1088.167722
v 2038.046898 363.902404 -1080.008637
v 2038.046898 363.902404 -1071.077410
v 2041.679554 363.902404 -1062.918322
v 2048.316748 363.902404 -1056.942158
v 2056.810858 363.902404 -1054.182270
v 2065.693165 363.902404 -1055.115826
v 2073.427836 363.902404 -1059.581442
v 2078.677489 363.902404 -1066.806962
v 2080.534392 363.902404 -1075.543021
v 2059.055967 92.037463 -1075.543021
v 2059.055967 363.902404 -1075.543021
vt 0.831124 0.141325
vt 0.773425 0.061978
vt 0.688502 0.012914
vt 0.590954 0.002691
vt 0.497667 0.032974
vt 0.424787 0.098612
vt 0.384862 0.188221
vt 0.384862 0.286310
vt 0.424787 0.375958
vt 0.497667 0.441557
vt 0.590954 0.471878
vt 0.688502 0.461655
vt 0.773425 0.412630
vt 0.831124 0.333244
vt 0.851532 0.237285
vt 0.001992 0.001839
vt 0.027124 0.001839
vt 0.052295 0.001839
vt 0.077466 0.001839
vt 0.102599 0.001839
vt 0.127770 0.001839
vt 0.152941 0.001839
vt 0.178111 0.001839
vt 0.203282 0.001839
vt 0.228453 0.001839
vt 0.253586 0.001839
vt 0.278757 0.001839
vt 0.303889 0.001839
vt 0.329060 0.001839
vt 0.354231 0.001839
vt 0.379363 0.001839
vt 0.001992 0.569387
vt 0.027124 0.569387
vt 0.052295 0.569387
vt 0.077466 0.569387
vt 0.102599 0.569387
vt 0.127770 0.569387
vt 0.152941 0.569387
vt 0.178111 0.569387
vt 0.203282 0.569387
vt 0.228453 0.569387
vt 0.253586 0.569387
vt 0.278757 0.569387
vt 0.303889 0.569387
vt 0.329060 0.569387
vt 0.354231 0.569387
vt 0.379363 0.569387
vt 0.977620 0.590879
vt 0.919959 0.511532
vt 0.835016 0.462507
vt 0.737450 0.452206
vt 0.644162 0.482528
vt 0.571273 0.548127
vt 0.531367 0.637775
vt 0.531367 0.735864
vt 0.571273 0.825473
vt 0.644162 0.891111
vt 0.737450 0.921432
vt 0.835016 0.911170
vt 0.919959 0.862106
vt 0.977620 0.782759
vt 0.998008 0.686839
vt 0.615583 0.227836
vt 0.762107 0.677390
vn 0.913545 0.000000 -0.406737
vn 0.669131 0.000000 -0.743145
vn 0.669131 0.000000 -0.743145
vn 0.913545 0.000000 -0.406737
vn 0.309017 0.000000 -0.951057
vn 0.309017 0.000000 -0.951057
vn -0.104528 0.000000 -0.994522
vn -0.104528 0.000000 -0.994522
vn -0.499999 0.000000 -0.866026
vn -0.499999 0.000000 -0.866026
vn -0.809017 0.000000 -0.587785
vn -0.809017 0.000000 -0.587785
vn -0.978148 0.000000 -0.207912
vn -0.978148 0.000000 -0.207912
vn -0.978148 0.000000 0.207912
vn -0.978148 0.000000 0.207912
vn -0.809017 0.000000 0.587785
vn -0.809017 0.000000 0.587785
vn -0.500000 0.000000 0.866026
vn -0.500000 0.000000 0.866026
vn -0.104528 0.000000 0.994522
vn -0.104528 0.000000 0.994522
vn 0.309016 0.000000 0.951057
vn 0.309016 0.000000 0.951057
vn 0.669131 0.000000 0.743145
vn 0.669131 0.000000 0.743145
vn 0.913545 0.000000 0.406737
vn 0.913545 0.000000 0.406737
vn 1.000000 0.000000 -0.000000
vn 1.000000 0.000000 -0.000000
vn 0.000000 -1.000000 0.000001
vn 0.000000 -1.000000 0.000000
vn 0.000000 -1.000000 0.000000
vn 0.000000 -1.000000 0.000001
vn 0.000000 -1.000000 0.000000
vn 0.000000 -1.000000 0.000000
vn 0.000000 -1.000000 0.000000
vn 0.000000 -1.000000 0.000000
vn 0.000000 -1.000000 0.000000
vn 0.000000 -1.000000 0.000001
vn 0.000000 -1.000000 0.000001
vn 0.000000 -1.000000 0.000000
vn 0.000000 -1.000000 0.000000
vn 0.000000 -1.000000 0.000000
vn 0.000000 -1.000000 0.000000
vn 0.000000 -1.000000 0.000000
vn 0.000000 1.000000 -0.000001
vn 0.000000 1.000000 0.000001
vn 0.000000 1.000000 -0.000000
vn 0.000000 1.000000 0.000001
vn 0.000000 1.000000 -0.000001
vn 0.000000 1.000000 0.000000
vn 0.000000 1.000000 -0.000001
vn 0.000000 1.000000 -0.000001
vn 0.000000 1.000000 0.000001
vn 0.000000 1.000000 0.000001
vn 0.000000 1.000000 0.000001
vn 0.000000 1.000000 0.000001
vn 0.000000 1.000000 -0.000001
vn 0.000000 1.000000 -0.000001
vn 0.000000 1.000000 0.000000
vn 0.000000 1.000000 -0.000001
s 1
g pCylinder22
usemtl initialShadingGroup
f 1/16/1 2/17/2 17/33/3 16/32/4
f 2/17/2 3/18/5 18/34/6 17/33/3
f 3/18/5 4/19/7 19/35/8 18/34/6
f 4/19/7 5/20/9 20/36/10 19/35/8
f 5/20/9 6/21/11 21/37/12 20/36/10
f 6/21/11 7/22/13 22/38/14 21/37/12
f 7/22/13 8/23/15 23/39/16 22/38/14
f 8/23/15 9/24/17 24/40/18 23/39/16
f 9/24/17 10/25/19 25/41/20 24/40/18
f 10/25/19 11/26/21 26/42/22 25/41/20
f 11/26/21 12/27/23 27/43/24 26/42/22
f 12/27/23 13/28/25 28/44/26 27/43/24
f 13/28/25 14/29/27 29/45/28 28/44/26
f 14/29/27 15/30/29 30/46/30 29/45/28
f 15/30/29 1/31/1 16/47/4 30/46/30
s 2
f 2/2/31 1/1/32 31/63/33
f 3/3/34 2/2/31 31/63/33
f 4/4/35 3/3/34 31/63/33
f 5/5/36 4/4/35 31/63/33
f 6/6/37 5/5/36 31/63/33
f 7/7/38 6/6/37 31/63/33
f 8/8/39 7/7/38 31/63/33
f 9/9/40 8/8/39 31/63/33
f 10/10/41 9/9/40 31/63/33
f 11/11/42 10/10/41 31/63/33
f 12/12/43 11/11/42 31/63/33
f 13/13/44 12/12/43 31/63/33
f 14/14/45 13/13/44 31/63/33
f 15/15/46 14/14/45 31/63/33
f 1/1/32 15/15/46 31/63/33
s 3
f 16/61/47 17/60/48 32/64/49
f 17/60/48 18/59/50 32/64/49
f 18/59/50 19/58/51 32/64/49
f 19/58/51 20/57/52 32/64/49
f 20/57/52 21/56/53 32/64/49
f 21/56/53 22/55/54 32/64/49
f 22/55/54 23/54/55 32/64/49
f 23/54/55 24/53/56 32/64/49
f 24/53/56 25/52/57 32/64/49
f 25/52/57 26/51/58 32/64/49
f 26/51/58 27/50/59 32/64/49
f 27/50/59 28/49/60 32/64/49
f 28/49/60 29/48/61 32/64/49
f 29/48/61 30/62/62 32/64/49
f 30/62/62 16/61/47 32/64/49
