# This file uses meters as units for non-parametric coordinates.

mtllib FluidPipe5.mtl
g default
v 1430.794241 185.838715 -1242.809917
v 1434.039603 190.377440 -1242.702386
v 1434.039542 195.985261 -1242.502288
v 1430.867056 200.498664 -1242.376606
v 1425.510733 202.256663 -1242.326499
v 1420.202872 200.513288 -1242.377351
v 1416.936881 195.979037 -1242.564928
v 1416.861929 190.377868 -1242.714357
v 1419.963248 185.702654 -1243.043006
v 1425.512442 184.112938 -1242.983388
v 1327.877066 166.278109 -182.141903
v 1325.448721 167.133679 -183.058814
v 1320.256583 165.402675 -183.166695
v 1327.877066 166.278109 -182.141903
v 1325.448721 167.133679 -183.058814
v 1320.256583 165.402675 -183.166695
v 1327.877066 166.278109 -182.141903
v 1325.448721 167.133679 -183.058814
v 1320.256583 165.402675 -183.166695
v 1367.405020 183.127757 -1167.499438
v 1370.703299 187.664558 -1167.337543
v 1370.703299 193.272377 -1167.137430
v 1367.405020 197.809147 -1166.975537
v 1362.068289 199.542053 -1166.913699
v 1356.731619 197.809146 -1166.975507
v 1353.433280 193.272376 -1167.137400
v 1353.433280 187.664557 -1167.337513
v 1356.628592 183.127756 -1167.499407
v 1361.965384 181.394867 -1167.561275
v 2261.403334 187.549580 -1291.413243
v 2261.403334 191.968757 -1287.955168
v 2261.403334 197.576577 -1287.755055
v 2261.403334 202.230970 -1290.889342
v 2261.403334 204.154194 -1296.160825
v 2261.403334 202.611606 -1301.555985
v 2261.403334 198.192459 -1305.014059
v 2261.403334 192.584639 -1305.214172
v 2261.403334 187.930215 -1302.079885
v 2261.403334 186.007007 -1296.808402
v 2261.403334 195.080593 -1296.484614
v 1420.202994 200.513352 -1242.377456
v 1472.924796 187.288622 -1284.100362
v 1472.924796 191.707800 -1280.642287
v 1472.924796 197.315619 -1280.442174
v 1472.924796 201.970012 -1283.576462
v 1472.924796 203.893236 -1288.847945
v 1472.924796 202.350648 -1294.243104
v 1472.924796 197.931501 -1297.701178
v 1472.924796 192.323681 -1297.901291
v 1472.924796 187.669258 -1294.767004
v 1472.924796 185.746049 -1289.495521
v 1420.202994 200.513352 -1242.377456
v 1425.513297 184.113179 -1242.983715
v 1420.202994 200.513352 -1242.377456
v 1420.202994 200.513352 -1242.377456
v 1420.202994 200.513352 -1242.377456
v 1420.202994 200.513352 -1242.377456
v 1420.202994 200.513352 -1242.377456
vt 0.340881 0.291872
vt 0.340881 0.283572
vt 0.340881 0.275272
vt 0.340881 0.266972
vt 0.340881 0.258672
vt 0.340881 0.250372
vt 0.340881 0.242071
vt 0.340881 0.233772
vt 0.340881 0.225471
vt 0.340881 0.217171
vt 0.340881 0.208870
vt 0.359305 0.218602
vt 0.369211 0.249094
vt 0.359305 0.279586
vt 0.359305 0.279586
vt 0.369211 0.249094
vt 0.359305 0.218602
vt 0.001876 0.666003
vt 0.333883 0.666003
vt 0.001876 0.333998
vt 0.333883 0.333998
vt 0.001877 0.001992
vt 0.333882 0.001992
vt 0.001877 0.998008
vt 0.333882 0.998008
vt 0.352114 0.208870
vt 0.352114 0.291872
vt 0.352114 0.283572
vt 0.352114 0.275272
vt 0.352114 0.266972
vt 0.352114 0.258672
vt 0.352114 0.250372
vt 0.352114 0.242071
vt 0.352114 0.233772
vt 0.352114 0.225471
vt 0.352114 0.217171
vt 0.856762 0.287526
vt 0.865061 0.287526
vt 0.865061 0.300007
vt 0.856762 0.300007
vt 0.873361 0.287526
vt 0.873361 0.300007
vt 0.881661 0.287526
vt 0.881661 0.300007
vt 0.889960 0.287526
vt 0.889960 0.300007
vt 0.898260 0.287526
vt 0.906561 0.287526
vt 0.906561 0.300007
vt 0.914863 0.287526
vt 0.914863 0.300007
vt 0.923161 0.287526
vt 0.923161 0.300007
vt 0.931461 0.287526
vt 0.931461 0.300007
vt 0.939762 0.287526
vt 0.939762 0.300007
vt 0.624616 0.198019
vt 0.643460 0.172082
vt 0.671877 0.214050
vt 0.624616 0.230081
vt 0.643460 0.256019
vt 0.673953 0.265926
vt 0.704444 0.256019
vt 0.723289 0.230081
vt 0.723289 0.198019
vt 0.704444 0.172082
vt 0.673953 0.162174
vt 0.856762 0.175194
vt 0.865061 0.175194
vt 0.873361 0.175194
vt 0.881661 0.175194
vt 0.889960 0.175194
vt 0.898260 0.175194
vt 0.906561 0.175194
vt 0.914863 0.175194
vt 0.923161 0.175194
vt 0.931461 0.175194
vt 0.939762 0.175194
vt 0.774035 0.144869
vt 0.940037 0.476873
vt 0.608034 0.476873
vt 0.934512 0.647244
vt 0.602507 0.813248
vt 0.506884 0.666020
vt 0.340881 0.334015
vt 0.672888 0.334015
vt 0.506885 0.002012
vt 0.602507 0.481243
vt 0.898260 0.300007
vt 0.898260 0.300007
vn 0.169789 -0.454906 -0.874204
vn 0.169789 -0.454906 -0.874204
vn 0.169789 -0.454906 -0.874204
vn 0.169789 -0.454906 -0.874204
vn 0.169789 -0.454906 -0.874204
vn 0.169789 -0.454906 -0.874204
vn -0.000000 0.000000 0.000000
vn -0.000000 0.000000 0.000000
vn -0.000000 0.000000 0.000000
vn -0.000000 0.000000 0.000000
vn -0.000000 0.000000 0.000000
vn -0.000000 0.000000 0.000000
vn -0.000000 0.000000 0.000000
vn -0.000000 0.000000 0.000000
vn -0.000000 0.000000 0.000000
vn -0.000000 0.000000 0.000000
vn -0.000000 0.000000 0.000000
vn -0.000000 0.000000 0.000000
vn 0.671420 -0.500326 0.546689
vn 0.671420 -0.500326 0.546689
vn 0.671420 -0.500326 0.546689
vn 0.671420 -0.500326 0.546689
vn 0.765761 -0.022935 0.642716
vn 0.765761 -0.022935 0.642716
vn 0.765761 -0.022935 0.642716
vn 0.765761 -0.022935 0.642716
vn 0.670853 0.461202 0.580732
vn 0.670853 0.461202 0.580732
vn 0.670853 0.461202 0.580732
vn 0.670853 0.461202 0.580732
vn 0.300152 0.910264 0.285183
vn 0.300152 0.910264 0.285183
vn 0.300152 0.910264 0.285183
vn 0.300152 0.910264 0.285183
vn -0.300754 0.928040 -0.219746
vn -0.300754 0.928040 -0.219746
vn -0.300754 0.928040 -0.219746
vn -0.300754 0.928040 -0.219746
vn -0.669055 0.505184 -0.545119
vn -0.669055 0.505184 -0.545119
vn -0.669055 0.505184 -0.545119
vn -0.669055 0.505184 -0.545119
vn -0.765266 0.025173 -0.643221
vn -0.765266 0.025173 -0.643221
vn -0.765266 0.025173 -0.643221
vn -0.765266 0.025173 -0.643221
vn -0.681984 -0.434839 -0.588058
vn -0.681985 -0.434839 -0.588058
vn -0.681985 -0.434839 -0.588058
vn -0.681985 -0.434839 -0.588058
vn -0.281243 -0.921258 -0.268676
vn -0.281243 -0.921258 -0.268676
vn -0.281243 -0.921258 -0.268676
vn -0.281243 -0.921258 -0.268676
vn 0.295526 -0.930746 0.215350
vn 0.295526 -0.930746 0.215349
vn 0.295526 -0.930746 0.215349
vn 0.295526 -0.930746 0.215349
vn 0.035733 -0.615504 0.787323
vn 0.055616 -0.614687 0.786808
vn 0.624091 -0.473499 0.621538
vn 0.624091 -0.473499 0.621538
vn 0.054635 -0.035608 0.997871
vn 0.054659 -0.035608 0.997870
vn 0.698573 -0.025505 0.715084
vn 0.698573 -0.025505 0.715084
vn 0.055434 0.557186 0.828535
vn 0.035645 0.557904 0.829140
vn 0.623504 0.430023 0.652934
vn 0.623504 0.430023 0.652935
vn 0.026192 0.939007 0.342899
vn 0.011748 0.939328 0.342819
vn 0.293514 0.896769 0.331142
vn 0.293514 0.896769 0.331142
vn -0.028677 0.960969 -0.275167
vn -0.012728 0.961353 -0.275025
vn -0.294173 0.917700 -0.267000
vn -0.294173 0.917700 -0.267000
vn -0.071102 0.614450 -0.785745
vn -0.045110 0.615486 -0.786856
vn -0.624201 0.478996 -0.617200
vn -0.624201 0.478996 -0.617200
vn -0.073784 0.035703 -0.996635
vn -0.073766 0.035703 -0.996636
vn -0.701814 0.026891 -0.711852
vn -0.701814 0.026891 -0.711852
vn -0.045708 -0.556477 -0.829605
vn -0.072082 -0.554572 -0.829008
vn -0.631664 -0.408169 -0.659089
vn -0.631664 -0.408169 -0.659089
vn -0.012271 -0.939564 -0.342155
vn -0.027369 -0.939606 -0.341163
vn -0.274275 -0.909096 -0.313555
vn -0.274275 -0.909096 -0.313555
vn 0.011670 -0.961398 0.274915
vn 0.025994 -0.961123 0.274894
vn 0.290635 -0.919663 0.264105
vn 0.290635 -0.919663 0.264104
vn 1.000000 0.000000 0.000000
vn 1.000000 0.000000 0.000000
vn 1.000000 0.000000 0.000000
vn 1.000000 0.000000 0.000000
vn 1.000000 0.000000 0.000000
vn 1.000000 0.000000 0.000000
vn 1.000000 0.000000 0.000000
vn 1.000000 0.000000 0.000000
vn 1.000000 0.000000 0.000000
vn 1.000000 0.000000 0.000000
vn 1.000000 0.000000 0.000000
vn -0.000000 0.000000 0.000000
vn -0.000000 0.000000 0.000000
vn -0.000000 0.000000 0.000000
vn -0.000000 0.000000 0.000000
vn -0.000000 0.000000 0.000000
vn -0.000000 0.000000 0.000000
vn 0.007508 -0.616245 0.787519
vn 0.007508 -0.616245 0.787519
vn 0.009280 -0.035660 0.999321
vn 0.009280 -0.035660 0.999321
vn 0.007508 0.558546 0.829440
vn 0.007508 0.558546 0.829440
vn 0.002868 0.939428 0.342734
vn 0.002868 0.939428 0.342734
vn -0.002868 0.961468 -0.274901
vn -0.002868 0.961468 -0.274902
vn -0.007508 0.616246 -0.787518
vn -0.007508 0.616246 -0.787518
vn -0.009280 0.035660 -0.999321
vn -0.009280 0.035660 -0.999321
vn -0.007508 -0.558544 -0.829441
vn -0.007508 -0.558544 -0.829441
vn -0.002868 -0.939429 -0.342733
vn -0.002868 -0.939429 -0.342733
vn 0.002868 -0.961469 0.274900
vn 0.002868 -0.961469 0.274900
vn 0.000000 -0.000000 -0.000000
vn 0.307564 -0.950922 -0.033933
vn 0.307564 -0.950922 -0.033933
vn -0.000000 0.000000 0.000000
vn -0.000000 0.000000 0.000000
vn -0.000000 0.000000 0.000000
vn 0.000000 0.000000 0.000000
vn 0.149801 0.570777 0.807325
vn 0.149801 0.570777 0.807325
vn -0.297609 0.946374 -0.125720
vn -0.000000 0.000000 -0.000000
vn -0.297609 0.946374 -0.125720
s off
g pCylinder15
usemtl initialShadingGroup
f 15/16/1 14/15/2 16/17/3 13/12/4 11/14/5 12/13/6
f 11/18/7 12/20/8 18/21/9 17/19/10
f 12/20/11 13/22/12 19/23/13 18/21/14
f 17/19/15 19/25/16 13/24/17 11/18/18
f 1/1/19 2/2/20 21/28/21 20/27/22
f 2/2/23 3/3/24 22/29/25 21/28/26
f 3/3/27 4/4/28 23/30/29 22/29/30
f 4/4/31 5/5/32 24/31/33 23/30/34
f 5/5/35 6/6/36 25/32/37 24/31/38
f 6/6/39 7/7/40 26/33/41 25/32/42
f 7/7/43 8/8/44 27/34/45 26/33/46
f 8/8/47 9/9/48 28/35/49 27/34/50
f 9/9/51 10/10/52 29/36/53 28/35/54
f 10/10/55 1/11/56 20/26/57 29/36/58
s 1
f 42/37/59 43/38/60 2/39/61 1/40/62
s 2
f 43/38/63 44/41/64 3/42/65 2/39/66
s 3
f 44/41/67 45/43/68 4/44/69 3/42/70
s 4
f 45/43/71 46/45/72 5/46/73 4/44/74
s 5
f 46/45/75 47/47/76 55/91/77 5/46/78
s 6
f 47/47/79 48/48/80 7/49/81 56/90/82
s 7
f 48/48/83 49/50/84 8/51/85 7/49/86
s 8
f 49/50/87 50/52/88 9/53/89 8/51/90
s 9
f 50/52/91 51/54/92 10/55/93 9/53/94
s 10
f 51/54/95 42/56/96 1/57/97 10/55/98
s 11
f 31/58/99 30/59/100 40/60/101
f 32/61/102 31/58/99 40/60/101
f 33/62/103 32/61/102 40/60/101
f 34/63/104 33/62/103 40/60/101
f 35/64/105 34/63/104 40/60/101
f 36/65/106 35/64/105 40/60/101
f 37/66/107 36/65/106 40/60/101
f 38/67/108 37/66/107 40/60/101
f 39/68/109 38/67/108 40/60/101
f 30/59/100 39/68/109 40/60/101
s off
f 5//110 57//111 41//112
f 58//113 7//114 41//115
s 1
f 30/69/116 31/70/117 43/38/60 42/37/59
s 2
f 31/70/118 32/71/119 44/41/64 43/38/63
s 3
f 32/71/120 33/72/121 45/43/68 44/41/67
s 4
f 33/72/122 34/73/123 46/45/72 45/43/71
s 5
f 34/73/124 35/74/125 47/47/76 46/45/75
s 6
f 35/74/126 36/75/127 48/48/80 47/47/79
s 7
f 36/75/128 37/76/129 49/50/84 48/48/83
s 8
f 37/76/130 38/77/131 50/52/88 49/50/87
s 9
f 38/77/132 39/78/133 51/54/92 50/52/91
s 10
f 39/78/134 30/79/135 42/56/96 51/54/95
s off
f 5/80/136 6/81/137 52/82/138
f 54/89/139 7/83/140 52/84/141
f 9/85/142 10/86/143 53/87/144
f 10/86/145 1/88/146 53/87/147
