# This file uses meters as units for non-parametric coordinates.

mtllib Stone2.mtl
g default
v 65.434219 34.772068 475.804879
v 123.635208 125.661934 411.996018
v 184.086121 19.054323 438.460954
v 102.218292 -75.389900 428.569688
v 63.924492 -81.140999 309.320367
v 3.473564 25.466625 282.855424
v 85.341415 119.910843 292.746682
v 196.389465 71.672958 325.324777
v 183.153046 -52.583908 335.567872
v 122.125473 9.748864 245.511499
v -0.673365 -5.024956 231.924310
v 88.393036 137.621811 273.166314
v -84.730385 140.764252 272.688882
v -141.175461 -11.446857 332.918092
v -88.393044 -26.922321 497.102014
v 84.730400 -30.064762 497.579446
v 141.175461 122.146378 437.350236
v 2.936987 219.360443 399.649095
v -138.944138 127.230911 436.577722
v 0.673365 115.724442 538.344018
vt 1.000000 0.500000
vt 0.176208 0.500000
vt 0.088104 0.176208
vt 0.838104 0.323792
vt 0.676208 0.500000
vt 0.588104 0.823792
vt 0.338104 0.676208
vt 0.338104 0.323792
vt 0.588104 0.176208
vt 0.500000 0.500000
vt 1.176208 0.500000
vt 1.088104 0.176208
vt 1.000000 0.500000
vt 1.088104 0.176208
vt 1.176208 0.500000
vt 0.838104 0.323792
vt 0.176208 0.500000
vt 0.088104 0.176208
vt 0.338104 0.323792
vt 0.588104 0.176208
vt 0.338104 0.676208
vt 0.676208 0.500000
vt 0.588104 0.823792
vt 0.500000 0.500000
vn 0.322989 0.396479 0.859350
vn 0.322989 0.396479 0.859350
vn 0.322989 0.396479 0.859350
vn 0.247649 -0.310778 0.917653
vn 0.247649 -0.310778 0.917653
vn 0.247649 -0.310778 0.917653
vn 0.783661 0.526288 0.329994
vn 0.783661 0.526288 0.329994
vn 0.783661 0.526288 0.329994
vn 0.661758 -0.618078 0.424329
vn 0.661759 -0.618078 0.424329
vn 0.661759 -0.618078 0.424329
vn 0.436299 0.881080 -0.182598
vn 0.436299 0.881080 -0.182598
vn 0.436299 0.881080 -0.182598
vn 0.993033 -0.100743 0.061136
vn 0.993032 -0.100743 0.061136
vn 0.993033 -0.100743 0.061136
vn 0.239056 -0.970544 -0.029960
vn 0.239056 -0.970544 -0.029960
vn 0.239056 -0.970544 -0.029960
vn -0.322989 -0.396479 -0.859350
vn -0.322989 -0.396479 -0.859350
vn -0.322989 -0.396479 -0.859350
vn -0.247649 0.310778 -0.917653
vn -0.247649 0.310778 -0.917653
vn -0.247649 0.310778 -0.917653
vn 0.430988 0.473323 -0.768255
vn 0.430988 0.473323 -0.768255
vn 0.430988 0.473322 -0.768255
vn 0.775068 -0.133477 -0.617619
vn 0.775068 -0.133477 -0.617619
vn 0.775068 -0.133477 -0.617619
vn 0.309085 -0.671044 -0.673919
vn 0.309085 -0.671044 -0.673919
vn 0.309085 -0.671044 -0.673919
vn -0.860512 -0.414387 0.296316
vn -0.860512 -0.414387 0.296316
vn -0.860512 -0.414387 0.296316
vn -0.860512 -0.414387 0.296316
vn -0.749508 0.627665 0.210414
vn -0.749508 0.627665 0.210414
vn -0.749508 0.627665 0.210414
vn -0.749508 0.627665 0.210414
vn 0.007615 0.273346 -0.961886
vn 0.007615 0.273346 -0.961886
vn 0.007615 0.273346 -0.961886
vn -0.577145 -0.106363 -0.809685
vn -0.577145 -0.106363 -0.809685
vn -0.577145 -0.106363 -0.809685
vn 0.016811 0.844903 -0.534655
vn 0.016811 0.844903 -0.534655
vn 0.016811 0.844903 -0.534655
vn -0.929350 0.230520 -0.288390
vn -0.929350 0.230520 -0.288390
vn -0.929350 0.230520 -0.288390
vn 0.592241 0.797480 -0.115228
vn 0.592241 0.797480 -0.115228
vn 0.592241 0.797480 -0.115228
vn -0.562265 0.818435 -0.118412
vn -0.562265 0.818435 -0.118412
vn -0.562265 0.818435 -0.118412
vn -0.938680 -0.196613 0.283238
vn -0.938680 -0.196613 0.283238
vn -0.938680 -0.196613 0.283238
vn -0.007615 -0.273346 0.961886
vn -0.007615 -0.273346 0.961886
vn -0.007615 -0.273346 0.961886
vn 0.577145 0.106363 0.809685
vn 0.577145 0.106363 0.809685
vn 0.577145 0.106363 0.809685
vn 0.368800 0.741702 0.560236
vn 0.368800 0.741702 0.560236
vn 0.368800 0.741702 0.560236
vn -0.344724 0.754654 0.558268
vn -0.344724 0.754654 0.558268
vn -0.344724 0.754654 0.558268
vn -0.577361 0.127320 0.806501
vn -0.577361 0.127320 0.806501
vn -0.577361 0.127320 0.806501
vn -0.017835 -0.995948 -0.088141
vn -0.017835 -0.995948 -0.088141
vn -0.017835 -0.995948 -0.088141
vn -0.017835 -0.995948 -0.088141
vn 0.843733 -0.436496 -0.312389
vn 0.843733 -0.436496 -0.312389
vn 0.843733 -0.436496 -0.312389
vn 0.843733 -0.436496 -0.312389
s off
g pPlatonic3
usemtl initialShadingGroup
f 1/1/1 3/12/2 2/11/3
f 1/1/4 4/4/5 3/12/6
f 2/2/7 3/3/8 8/8/9
f 3/12/10 4/4/11 9/9/12
f 2/2/13 8/8/14 7/7/15
f 3/3/16 9/9/17 8/8/18
f 4/4/19 5/5/20 9/9/21
f 5/5/22 6/6/23 10/10/24
f 6/6/25 7/7/26 10/10/27
f 7/7/28 8/8/29 10/10/30
f 8/8/31 9/9/32 10/10/33
f 9/9/34 5/5/35 10/10/36
f 1/1/37 6/6/38 5/5/39 4/4/40
f 2/2/41 7/7/42 6/6/43 1/1/44
f 11/13/45 13/14/46 12/15/47
f 11/13/48 14/16/49 13/14/50
f 12/17/51 13/18/52 18/19/53
f 13/14/54 14/16/55 19/20/56
f 12/17/57 18/19/58 17/21/59
f 13/18/60 19/20/61 18/19/62
f 14/16/63 15/22/64 19/20/65
f 15/22/66 16/23/67 20/24/68
f 16/23/69 17/21/70 20/24/71
f 17/21/72 18/19/73 20/24/74
f 18/19/75 19/20/76 20/24/77
f 19/20/78 15/22/79 20/24/80
f 11/13/81 16/23/82 15/22/83 14/16/84
f 12/17/85 17/21/86 16/23/87 11/13/88
