# This file uses meters as units for non-parametric coordinates.

mtllib Floor.mtl
g default
v 0.000000 0.000000 -800.000000
v 2400.000000 0.000000 -800.000000
v 0.000000 100.000000 -800.000000
v 2400.000000 100.000000 -800.000000
v 0.000000 100.000000 -2150.000000
v 2400.000000 100.000000 -2150.000000
v 0.000000 0.000000 -2150.000000
v 2400.000000 0.000000 -2150.000000
v 1000.000000 0.000000 -800.000000
v 1000.000000 0.000000 -2150.000000
v 1000.000000 100.000000 -2150.000000
v 1000.000000 100.000000 -800.000000
v 1400.000000 0.000000 -800.000000
v 1400.000000 0.000000 -2150.000000
v 1400.000000 100.000000 -2150.000000
v 1400.000000 100.000000 -800.000000
v 1000.000000 0.000000 400.000000
v 1400.000000 0.000000 400.000000
v 1000.000000 100.000000 0.000000
v 1000.000000 0.000000 0.000000
v 1400.000000 0.000000 0.000000
v 1400.000000 100.000000 0.000000
v 0.000000 100.000000 0.000000
v 0.000000 0.000000 0.000000
v 0.000000 0.000000 400.000000
v 2400.000000 0.000000 0.000000
v 2400.000000 100.000000 0.000000
v 2400.000000 0.000000 400.000000
v 1000.000000 100.000000 300.000000
v 0.000000 100.000000 300.000000
v 0.000000 0.000000 300.000000
v 1000.000000 0.000000 300.000000
v 1400.000000 0.000000 300.000000
v 2400.000000 0.000000 300.000000
v 2400.000000 100.000000 300.000000
v 1400.000000 100.000000 300.000000
v 2400.000000 50.000000 300.000000
v 2400.000000 50.000000 400.000000
v 1400.000000 50.000000 400.000000
v 1000.000000 50.000000 400.000000
v 0.000000 50.000000 400.000000
v 0.000000 50.000000 300.000000
v 1000.000000 50.000000 300.000000
v 0.000000 50.000000 300.000000
v 2400.000000 50.000000 300.000000
v 1400.000000 50.000000 300.000000
vt 0.449291 0.272834
vt 0.449291 0.020671
vt 0.467969 0.020671
vt 0.467970 0.272834
vt 0.477310 0.998008
vt 0.225147 0.998008
vt 0.225147 0.979329
vt 0.477310 0.979329
vt 0.001002 0.988668
vt 0.019681 0.988669
vt 0.019681 0.998008
vt 0.001002 0.998008
vt 0.075717 0.979329
vt 0.075717 0.998008
vt 0.019681 0.979329
vt 0.019681 0.512361
vt 0.019681 0.521700
vt 0.001002 0.521700
vt 0.001003 0.512361
vt 0.075717 0.512362
vt 0.075717 0.531040
vt 0.019681 0.531040
vt 0.225147 0.792542
vt 0.225147 0.811221
vt 0.075717 0.811221
vt 0.075717 0.792542
vt 0.262503 0.272834
vt 0.281183 0.272834
vt 0.281183 0.422263
vt 0.262504 0.422263
vt 0.477310 0.717827
vt 0.225147 0.717827
vt 0.225147 0.531040
vt 0.477310 0.531040
vt 0.477310 0.792542
vt 0.075717 0.717827
vt 0.019681 0.792542
vt 0.019681 0.717827
vt 0.262504 0.020671
vt 0.187789 0.272834
vt 0.187789 0.020671
vt 0.001002 0.020671
vt 0.001002 0.272834
vt 0.187789 0.422263
vt 0.262504 0.478299
vt 0.187789 0.478299
vt 0.449291 0.478299
vt 0.449291 0.422263
vt 0.262504 0.496978
vt 0.187789 0.496978
vt 0.001002 0.478299
vt 0.001002 0.422263
vt 0.449291 0.496978
vt 0.001002 0.496978
vt 0.483250 0.001998
vt 0.501928 0.001998
vt 0.501928 0.450287
vt 0.483250 0.450287
vt 0.206468 0.717827
vt 0.206468 0.531040
vt 0.262504 0.001992
vt 0.449291 0.001992
vt 0.187789 0.020671
vt 0.187789 0.001992
vt 0.001002 0.001992
vt 0.001002 0.020670
vt 0.187789 0.291512
vt 0.001002 0.291512
vt 0.262504 0.506317
vt 0.187789 0.506317
vt 0.187789 0.496978
vt 0.001002 0.506317
vt 0.001002 0.496978
vt 0.449291 0.506317
vt 0.094396 0.792542
vt 0.094396 0.979329
vt 0.262504 0.403584
vt 0.449291 0.403585
vt 0.019681 0.792542
vt 0.019681 0.979329
vt 0.010342 0.979329
vt 0.010342 0.792542
vt 0.010342 0.717827
vt 0.010342 0.531040
vn 0.000000 0.000000 1.000000
vn 0.000000 0.000000 1.000000
vn 0.000000 0.000000 1.000000
vn 0.000000 0.000000 1.000000
vn 0.000000 1.000000 0.000000
vn 0.000000 1.000000 0.000000
vn 0.000000 1.000000 0.000000
vn 0.000000 1.000000 0.000000
vn 0.000000 0.000000 -1.000000
vn 0.000000 0.000000 -1.000000
vn 0.000000 0.000000 -1.000000
vn 0.000000 0.000000 -1.000000
vn 0.000000 -1.000000 0.000000
vn 0.000000 -1.000000 0.000000
vn 0.000000 -1.000000 0.000000
vn 0.000000 -1.000000 0.000000
vn 1.000000 0.000000 0.000000
vn 1.000000 0.000000 0.000000
vn 1.000000 0.000000 0.000000
vn 1.000000 0.000000 0.000000
vn -1.000000 0.000000 0.000000
vn -1.000000 0.000000 0.000000
vn -1.000000 0.000000 0.000000
vn -1.000000 0.000000 0.000000
vn 0.000000 -1.000000 0.000000
vn 0.000000 -1.000000 0.000000
vn 0.000000 -1.000000 0.000000
vn 0.000000 -1.000000 0.000000
vn 0.000000 0.000000 -1.000000
vn 0.000000 0.000000 -1.000000
vn 0.000000 0.000000 -1.000000
vn 0.000000 0.000000 -1.000000
vn 0.000000 1.000000 0.000000
vn 0.000000 1.000000 0.000000
vn 0.000000 1.000000 0.000000
vn 0.000000 1.000000 0.000000
vn 0.000000 0.000000 1.000000
vn 0.000000 0.000000 1.000000
vn 0.000000 0.000000 1.000000
vn 0.000000 0.000000 1.000000
vn 0.000000 0.000000 1.000000
vn 0.000000 0.000000 1.000000
vn 0.000000 0.000000 1.000000
vn 0.000000 0.000000 1.000000
vn -1.000000 0.000000 0.000000
vn -1.000000 0.000000 0.000000
vn -1.000000 0.000000 0.000000
vn -1.000000 0.000000 0.000000
vn 0.000000 -1.000000 0.000000
vn 0.000000 -1.000000 0.000000
vn 0.000000 -1.000000 0.000000
vn 0.000000 -1.000000 0.000000
vn 1.000000 0.000000 0.000000
vn 1.000000 0.000000 0.000000
vn 1.000000 0.000000 0.000000
vn 1.000000 0.000000 0.000000
vn -1.000000 0.000000 0.000000
vn -1.000000 0.000000 0.000000
vn -1.000000 0.000000 0.000000
vn -1.000000 0.000000 0.000000
vn 0.000000 -1.000000 0.000000
vn 0.000000 -1.000000 0.000000
vn 1.000000 0.000000 0.000000
vn 1.000000 0.000000 0.000000
vn 1.000000 0.000000 0.000000
vn 1.000000 0.000000 0.000000
vn 0.000000 1.000000 0.000000
vn 0.000000 1.000000 0.000000
vn 0.000000 0.000000 -1.000000
vn 0.000000 0.000000 -1.000000
vn 0.000000 0.000000 -1.000000
vn 0.000000 0.000000 -1.000000
vn 0.000000 -1.000000 0.000000
vn 0.000000 -1.000000 0.000000
vn 0.000000 0.000000 1.000000
vn 0.000000 0.000000 1.000000
vn 0.000000 0.000000 -1.000000
vn 0.000000 0.000000 -1.000000
vn 0.000000 0.000000 -1.000000
vn 0.000000 0.000000 -1.000000
vn 0.000000 0.000000 1.000000
vn 0.000000 0.000000 1.000000
vn 0.000000 -1.000000 0.000000
vn 0.000000 -1.000000 0.000000
vn 0.000000 1.000000 0.000000
vn 0.000000 1.000000 0.000000
vn 0.000000 1.000000 0.000000
vn -1.000000 0.000000 0.000000
vn -1.000000 0.000000 0.000000
vn -1.000000 0.000000 0.000000
vn 0.000000 -1.000000 0.000000
vn 0.000000 -1.000000 0.000000
vn 1.000000 0.000000 0.000000
vn 1.000000 0.000000 0.000000
vn 1.000000 0.000000 0.000000
vn 0.000000 1.000000 0.000000
vn 0.000000 1.000000 0.000000
vn 0.000000 1.000000 0.000000
vn 0.000000 1.000000 0.000000
vn 0.000000 1.000000 0.000000
vn 0.000000 1.000000 0.000000
vn 0.000000 1.000000 0.000000
vn 0.000000 0.000000 1.000000
vn 0.000000 0.000000 1.000000
vn 0.000000 0.000000 1.000000
vn 0.000000 0.000000 1.000000
vn 0.000000 0.000000 1.000000
vn 0.000000 0.000000 1.000000
vn 0.000000 0.000000 1.000000
vn 0.000000 0.000000 1.000000
s off
g pCube2
usemtl initialShadingGroup
f 16/32/1 13/59/2 2/60/3 4/33/4
s 1
f 15/31/5 16/32/6 4/33/7 6/34/8
s 2
f 14/39/9 15/61/10 6/62/11 8/2/12
s 3
f 13/27/13 14/39/14 8/2/15 2/1/16
s off
f 2/1/17 8/2/18 6/3/19 4/4/20
f 7/5/21 1/6/22 3/7/23 5/8/24
s 3
f 7/42/25 10/41/26 9/40/27 1/43/28
s 2
f 5/65/29 11/64/30 10/63/31 7/66/32
s 1
f 3/7/33 12/23/34 11/35/35 5/8/36
s off
f 1/43/37 9/40/38 12/67/39 3/68/40
s 3
f 9/40/27 10/41/26 14/39/14 13/27/13
s 2
f 10/63/31 11/64/30 15/61/10 14/39/9
s 1
f 11/35/35 12/23/34 16/32/6 15/31/5
s 4
f 39/69/41 40/70/42 17/71/43 18/49/44
s 5
f 41/9/45 42/10/46 31/11/47 25/12/48
s 3
f 32/46/49 33/45/50 18/49/51 17/50/52
s 7
f 34/16/53 37/17/54 38/18/55 28/19/56
s off
f 12/23/57 9/24/58 20/25/59 19/26/60
s 3
f 9/40/27 13/27/13 21/30/61 20/44/62
s off
f 13/27/63 16/28/64 22/29/65 21/30/66
s 1
f 16/32/6 12/23/34 19/26/67 22/36/68
s off
f 19/26/69 20/75/70 24/76/71 23/13/72
s 3
f 31/51/73 32/46/49 17/50/52 25/54/74
s 4
f 17/71/43 40/70/42 41/72/75 25/73/76
s off
f 21/30/77 22/77/78 27/78/79 26/48/80
s 4
f 38/74/81 39/69/41 18/49/44 28/53/82
s 3
f 18/49/51 33/45/50 34/47/83 28/53/84
s 1
f 30/15/85 29/37/86 19/26/67 23/13/87
s 5
f 23/13/88 24/14/89 31/11/47 42/10/46 30/15/90
s 3
f 20/44/62 32/46/49 31/51/73 24/52/91
f 20/44/62 21/30/61 33/45/50 32/46/49
f 34/47/83 33/45/50 21/30/61 26/48/92
s 7
f 26/20/93 27/21/94 35/22/95 37/17/54 34/16/53
s 1
f 22/36/68 36/38/96 35/22/97 27/21/98
f 22/36/68 19/26/67 29/37/86 36/38/96
s off
f 38/55/99 37/56/100 42/57/101 41/58/102
s 8
f 29/79/103 30/80/104 44/81/105 43/82/106
f 35/22/107 36/38/108 46/83/109 45/84/110
f 36/38/108 29/79/103 43/82/106 46/83/109
