# This file uses meters as units for non-parametric coordinates.

mtllib FluidPipe9.mtl
g default
v 337.058045 316.067900 -1312.083628
v 342.939080 367.883286 -1281.601618
v 353.125266 391.556386 -1226.971963
v 363.725829 378.044897 -1169.061330
v 370.691711 332.509728 -1129.989620
v 371.362184 272.343782 -1124.680894
v 342.838301 316.490009 -1315.157786
v 348.841325 369.380193 -1284.043494
v 359.238802 393.544342 -1228.280662
v 370.059250 379.752585 -1169.168799
v 377.169625 333.272886 -1129.286628
v 377.854007 271.858928 -1123.867776
v 345.699128 317.657852 -1320.945001
v 352.021526 373.361905 -1288.175359
v 362.972170 398.811640 -1229.445834
v 374.368288 384.286122 -1167.189099
v 381.856950 335.333614 -1125.185112
v 382.577741 270.652305 -1119.477973
v 344.547788 319.125353 -1327.234745
v 351.264952 378.307533 -1292.418989
v 362.899349 405.346339 -1230.022422
v 375.007035 389.913861 -1163.878409
v 382.963284 337.904779 -1119.251719
v 383.729081 269.184804 -1113.188230
v 339.824054 320.331975 -1331.624556
v 346.860592 382.328025 -1295.153449
v 359.048155 410.652408 -1229.790189
v 371.731511 394.486177 -1160.501304
v 380.066048 340.004285 -1113.752798
v 380.868255 268.016961 -1107.401014
v 333.332232 320.816828 -1332.437665
v 340.490759 383.887678 -1295.334281
v 352.889613 412.703111 -1228.837840
v 365.792855 396.256612 -1158.347725
v 374.271884 340.830190 -1110.788759
v 375.087998 267.594854 -1104.326857
v 327.551976 320.394721 -1329.363508
v 334.588514 382.390771 -1292.892401
v 346.776077 410.715154 -1227.529141
v 359.459433 394.548924 -1158.240256
v 367.793969 340.067032 -1111.491750
v 368.596176 268.079708 -1105.139966
v 324.691148 319.226878 -1323.576292
v 331.408313 378.409059 -1288.760536
v 343.042709 405.447865 -1226.363969
v 355.150395 390.015387 -1160.219956
v 363.106644 338.006304 -1115.593267
v 363.872441 269.286330 -1109.529777
v 325.842487 317.759377 -1317.286548
v 332.164885 373.463431 -1284.516906
v 343.115529 398.913166 -1225.787381
v 354.511647 384.387647 -1163.530646
v 362.000309 335.435140 -1121.526659
v 362.721100 270.753831 -1115.819520
v 330.566222 316.552755 -1312.896737
v 336.569245 369.442939 -1281.782446
v 346.966723 393.607089 -1226.019614
v 357.787171 379.815331 -1166.907751
v 364.897546 333.335633 -1127.025580
v 365.581928 271.921674 -1121.606728
vt 0.000996 0.998008
vt 0.100599 0.998008
vt 0.200202 0.998008
vt 0.299805 0.998008
vt 0.399400 0.998008
vt 0.499002 0.998008
vt 0.000996 0.898409
vt 0.100599 0.898409
vt 0.200202 0.898409
vt 0.299805 0.898409
vt 0.399400 0.898409
vt 0.499002 0.898409
vt 0.000996 0.798809
vt 0.100599 0.798809
vt 0.200202 0.798809
vt 0.299805 0.798809
vt 0.399400 0.798809
vt 0.499002 0.798809
vt 0.000996 0.699206
vt 0.100599 0.699206
vt 0.200202 0.699206
vt 0.299805 0.699206
vt 0.399400 0.699206
vt 0.499002 0.699206
vt 0.000996 0.599599
vt 0.100599 0.599599
vt 0.200202 0.599599
vt 0.299805 0.599599
vt 0.399400 0.599599
vt 0.499002 0.599599
vt 0.000996 0.500000
vt 0.100599 0.500000
vt 0.200202 0.500000
vt 0.299805 0.500000
vt 0.399400 0.500000
vt 0.499002 0.500000
vt 0.000996 0.400401
vt 0.100599 0.400401
vt 0.200202 0.400401
vt 0.299805 0.400401
vt 0.399400 0.400401
vt 0.499002 0.400401
vt 0.000996 0.300798
vt 0.100599 0.300798
vt 0.200202 0.300798
vt 0.299805 0.300798
vt 0.399400 0.300798
vt 0.499002 0.300798
vt 0.000996 0.201198
vt 0.100599 0.201198
vt 0.200202 0.201198
vt 0.299805 0.201198
vt 0.399400 0.201198
vt 0.499002 0.201198
vt 0.000996 0.101591
vt 0.100599 0.101591
vt 0.200202 0.101591
vt 0.299805 0.101591
vt 0.399400 0.101591
vt 0.499002 0.101591
vt 0.000996 0.001992
vt 0.100599 0.001992
vt 0.200202 0.001992
vt 0.299805 0.001992
vt 0.399400 0.001992
vt 0.499002 0.001992
vn 0.436428 -0.492497 0.752979
vn 0.436428 -0.492497 0.752979
vn 0.436428 -0.492497 0.752979
vn 0.436428 -0.492497 0.752979
vn 0.353853 -0.880461 0.315558
vn 0.353853 -0.880461 0.315558
vn 0.353853 -0.880461 0.315558
vn 0.353853 -0.880461 0.315558
vn 0.247022 -0.932685 -0.262828
vn 0.247022 -0.932685 -0.262828
vn 0.247022 -0.932685 -0.262828
vn 0.247022 -0.932685 -0.262828
vn 0.156741 -0.629222 -0.761256
vn 0.156741 -0.629222 -0.761257
vn 0.156741 -0.629222 -0.761256
vn 0.156741 -0.629222 -0.761256
vn 0.117495 -0.085985 -0.989344
vn 0.117495 -0.085985 -0.989344
vn 0.117495 -0.085985 -0.989344
vn 0.117495 -0.085985 -0.989344
vn 0.874306 -0.315979 0.368438
vn 0.874306 -0.315979 0.368438
vn 0.874306 -0.315978 0.368438
vn 0.874306 -0.315979 0.368438
vn 0.821840 -0.562484 0.090506
vn 0.821840 -0.562484 0.090506
vn 0.821840 -0.562484 0.090506
vn 0.821840 -0.562484 0.090506
vn 0.753959 -0.595668 -0.276992
vn 0.753959 -0.595668 -0.276992
vn 0.753960 -0.595668 -0.276992
vn 0.753959 -0.595668 -0.276992
vn 0.696597 -0.402852 -0.593686
vn 0.696597 -0.402852 -0.593686
vn 0.696597 -0.402852 -0.593686
vn 0.696597 -0.402852 -0.593686
vn 0.671661 -0.057686 -0.738609
vn 0.671661 -0.057686 -0.738609
vn 0.671661 -0.057686 -0.738609
vn 0.671661 -0.057686 -0.738609
vn 0.983435 -0.005028 -0.181191
vn 0.983435 -0.005028 -0.181191
vn 0.983435 -0.005028 -0.181191
vn 0.983435 -0.005028 -0.181191
vn 0.983435 -0.005028 -0.181191
vn 0.983435 -0.005028 -0.181191
vn 0.983435 -0.005028 -0.181191
vn 0.983435 -0.005028 -0.181191
vn 0.983435 -0.005028 -0.181191
vn 0.983435 -0.005028 -0.181191
vn 0.983435 -0.005028 -0.181191
vn 0.983435 -0.005028 -0.181191
vn 0.983435 -0.005028 -0.181191
vn 0.983435 -0.005028 -0.181191
vn 0.983435 -0.005028 -0.181191
vn 0.983435 -0.005028 -0.181191
vn 0.983435 -0.005028 -0.181191
vn 0.983435 -0.005028 -0.181191
vn 0.983435 -0.005028 -0.181191
vn 0.983435 -0.005028 -0.181191
vn 0.688676 0.307987 -0.656406
vn 0.688676 0.307987 -0.656406
vn 0.688676 0.307987 -0.656406
vn 0.688676 0.307987 -0.656406
vn 0.741144 0.554493 -0.378476
vn 0.741144 0.554493 -0.378476
vn 0.741144 0.554493 -0.378476
vn 0.741144 0.554493 -0.378476
vn 0.809022 0.587676 -0.010977
vn 0.809022 0.587676 -0.010977
vn 0.809022 0.587676 -0.010977
vn 0.809022 0.587676 -0.010977
vn 0.866385 0.394860 0.305717
vn 0.866385 0.394860 0.305717
vn 0.866385 0.394860 0.305717
vn 0.866385 0.394860 0.305717
vn 0.891321 0.049695 0.450640
vn 0.891321 0.049695 0.450640
vn 0.891321 0.049695 0.450640
vn 0.891321 0.049695 0.450640
vn 0.144274 0.489529 -0.859969
vn 0.144274 0.489529 -0.859969
vn 0.144274 0.489529 -0.859969
vn 0.144274 0.489529 -0.859969
vn 0.226849 0.877492 -0.422549
vn 0.226849 0.877492 -0.422549
vn 0.226849 0.877492 -0.422549
vn 0.226849 0.877492 -0.422549
vn 0.333681 0.929716 0.155837
vn 0.333681 0.929716 0.155837
vn 0.333681 0.929716 0.155837
vn 0.333681 0.929716 0.155837
vn 0.423960 0.626254 0.654266
vn 0.423960 0.626254 0.654266
vn 0.423960 0.626254 0.654266
vn 0.423960 0.626254 0.654266
vn 0.463207 0.083016 0.882354
vn 0.463207 0.083016 0.882354
vn 0.463207 0.083016 0.882354
vn 0.463207 0.083016 0.882354
vn -0.436428 0.492498 -0.752979
vn -0.436428 0.492498 -0.752979
vn -0.436428 0.492498 -0.752979
vn -0.436428 0.492498 -0.752979
vn -0.353852 0.880461 -0.315558
vn -0.353852 0.880461 -0.315558
vn -0.353852 0.880461 -0.315558
vn -0.353852 0.880461 -0.315558
vn -0.247022 0.932685 0.262828
vn -0.247022 0.932685 0.262828
vn -0.247022 0.932685 0.262828
vn -0.247022 0.932685 0.262828
vn -0.156740 0.629223 0.761256
vn -0.156740 0.629223 0.761256
vn -0.156740 0.629223 0.761256
vn -0.156740 0.629223 0.761256
vn -0.117495 0.085985 0.989344
vn -0.117495 0.085985 0.989344
vn -0.117495 0.085985 0.989344
vn -0.117495 0.085985 0.989344
vn -0.874306 0.315978 -0.368437
vn -0.874306 0.315978 -0.368437
vn -0.874306 0.315978 -0.368437
vn -0.874306 0.315978 -0.368437
vn -0.821840 0.562484 -0.090506
vn -0.821840 0.562484 -0.090506
vn -0.821840 0.562484 -0.090506
vn -0.821840 0.562484 -0.090506
vn -0.753960 0.595668 0.276992
vn -0.753960 0.595668 0.276992
vn -0.753960 0.595668 0.276992
vn -0.753960 0.595668 0.276992
vn -0.696597 0.402851 0.593686
vn -0.696597 0.402851 0.593686
vn -0.696597 0.402851 0.593686
vn -0.696597 0.402852 0.593686
vn -0.671661 0.057686 0.738609
vn -0.671661 0.057686 0.738609
vn -0.671661 0.057686 0.738609
vn -0.671661 0.057686 0.738609
vn -0.983435 0.005028 0.181191
vn -0.983435 0.005028 0.181191
vn -0.983435 0.005028 0.181191
vn -0.983435 0.005028 0.181191
vn -0.983435 0.005028 0.181191
vn -0.983435 0.005028 0.181191
vn -0.983435 0.005028 0.181191
vn -0.983435 0.005028 0.181191
vn -0.983435 0.005028 0.181191
vn -0.983435 0.005028 0.181191
vn -0.983435 0.005028 0.181191
vn -0.983435 0.005028 0.181191
vn -0.983435 0.005028 0.181192
vn -0.983435 0.005028 0.181192
vn -0.983435 0.005028 0.181192
vn -0.983435 0.005028 0.181192
vn -0.983435 0.005028 0.181191
vn -0.983435 0.005028 0.181191
vn -0.983435 0.005028 0.181191
vn -0.983435 0.005028 0.181191
vn -0.688676 -0.307987 0.656406
vn -0.688676 -0.307987 0.656406
vn -0.688676 -0.307987 0.656406
vn -0.688676 -0.307987 0.656406
vn -0.741144 -0.554492 0.378475
vn -0.741144 -0.554492 0.378476
vn -0.741144 -0.554492 0.378475
vn -0.741144 -0.554492 0.378476
vn -0.809021 -0.587677 0.010977
vn -0.809021 -0.587677 0.010977
vn -0.809021 -0.587677 0.010977
vn -0.809021 -0.587677 0.010977
vn -0.866385 -0.394860 -0.305717
vn -0.866385 -0.394860 -0.305717
vn -0.866385 -0.394860 -0.305717
vn -0.866385 -0.394860 -0.305717
vn -0.891321 -0.049695 -0.450640
vn -0.891321 -0.049695 -0.450640
vn -0.891321 -0.049695 -0.450640
vn -0.891321 -0.049695 -0.450640
vn -0.144274 -0.489528 0.859969
vn -0.144274 -0.489528 0.859969
vn -0.144274 -0.489528 0.859969
vn -0.144274 -0.489528 0.859969
vn -0.226850 -0.877492 0.422549
vn -0.226850 -0.877492 0.422549
vn -0.226850 -0.877492 0.422549
vn -0.226850 -0.877492 0.422549
vn -0.333681 -0.929716 -0.155838
vn -0.333681 -0.929716 -0.155838
vn -0.333681 -0.929716 -0.155838
vn -0.333681 -0.929716 -0.155838
vn -0.423961 -0.626253 -0.654266
vn -0.423961 -0.626253 -0.654266
vn -0.423961 -0.626253 -0.654266
vn -0.423961 -0.626253 -0.654266
vn -0.463207 -0.083016 -0.882353
vn -0.463207 -0.083016 -0.882353
vn -0.463207 -0.083016 -0.882353
vn -0.463207 -0.083016 -0.882353
s off
g pTorus4
usemtl initialShadingGroup
f 2/2/1 1/1/2 7/7/3 8/8/4
f 3/3/5 2/2/6 8/8/7 9/9/8
f 4/4/9 3/3/10 9/9/11 10/10/12
f 5/5/13 4/4/14 10/10/15 11/11/16
f 6/6/17 5/5/18 11/11/19 12/12/20
f 8/8/21 7/7/22 13/13/23 14/14/24
f 9/9/25 8/8/26 14/14/27 15/15/28
f 10/10/29 9/9/30 15/15/31 16/16/32
f 11/11/33 10/10/34 16/16/35 17/17/36
f 12/12/37 11/11/38 17/17/39 18/18/40
f 14/14/41 13/13/42 19/19/43 20/20/44
f 15/15/45 14/14/46 20/20/47 21/21/48
f 16/16/49 15/15/50 21/21/51 22/22/52
f 17/17/53 16/16/54 22/22/55 23/23/56
f 18/18/57 17/17/58 23/23/59 24/24/60
f 20/20/61 19/19/62 25/25/63 26/26/64
f 21/21/65 20/20/66 26/26/67 27/27/68
f 22/22/69 21/21/70 27/27/71 28/28/72
f 23/23/73 22/22/74 28/28/75 29/29/76
f 24/24/77 23/23/78 29/29/79 30/30/80
f 26/26/81 25/25/82 31/31/83 32/32/84
f 27/27/85 26/26/86 32/32/87 33/33/88
f 28/28/89 27/27/90 33/33/91 34/34/92
f 29/29/93 28/28/94 34/34/95 35/35/96
f 30/30/97 29/29/98 35/35/99 36/36/100
f 32/32/101 31/31/102 37/37/103 38/38/104
f 33/33/105 32/32/106 38/38/107 39/39/108
f 34/34/109 33/33/110 39/39/111 40/40/112
f 35/35/113 34/34/114 40/40/115 41/41/116
f 36/36/117 35/35/118 41/41/119 42/42/120
f 38/38/121 37/37/122 43/43/123 44/44/124
f 39/39/125 38/38/126 44/44/127 45/45/128
f 40/40/129 39/39/130 45/45/131 46/46/132
f 41/41/133 40/40/134 46/46/135 47/47/136
f 42/42/137 41/41/138 47/47/139 48/48/140
f 44/44/141 43/43/142 49/49/143 50/50/144
f 45/45/145 44/44/146 50/50/147 51/51/148
f 46/46/149 45/45/150 51/51/151 52/52/152
f 47/47/153 46/46/154 52/52/155 53/53/156
f 48/48/157 47/47/158 53/53/159 54/54/160
f 50/50/161 49/49/162 55/55/163 56/56/164
f 51/51/165 50/50/166 56/56/167 57/57/168
f 52/52/169 51/51/170 57/57/171 58/58/172
f 53/53/173 52/52/174 58/58/175 59/59/176
f 54/54/177 53/53/178 59/59/179 60/60/180
f 56/56/181 55/55/182 1/61/183 2/62/184
f 57/57/185 56/56/186 2/62/187 3/63/188
f 58/58/189 57/57/190 3/63/191 4/64/192
f 59/59/193 58/58/194 4/64/195 5/65/196
f 60/60/197 59/59/198 5/65/199 6/66/200
