# This file uses meters as units for non-parametric coordinates.

mtllib OpenContainer.mtl
g default
v -1045.954224 99.918732 -78.330139
v -1018.562683 99.918732 -78.330139
v -1045.954224 129.972488 -78.330139
v -1018.562683 129.972488 -78.330139
v -1045.954224 129.972488 -136.661194
v -1018.562683 129.972488 -136.661194
v -1045.954224 99.918732 -136.661194
v -1018.562683 99.918732 -136.661194
v -1043.954224 129.972488 -80.330139
v -1020.562683 129.972488 -80.330139
v -1020.562683 129.972488 -134.661194
v -1043.954224 129.972488 -134.661194
v -1043.954224 125.572479 -80.330139
v -1020.562683 125.572479 -80.330139
v -1020.562683 125.572479 -134.661194
v -1043.954224 125.572479 -134.661194
vt 0.838942 0.076913
vt 0.862436 0.076482
vt 0.867503 0.092401
vt 0.871963 0.089439
vt 0.867726 0.076917
vt 0.903666 0.117932
vt 0.901649 0.123296
vt 0.875895 0.035532
vt 0.885152 0.141243
vt 0.864209 0.076307
vt 0.869210 0.091755
vt 0.877228 0.036733
vt 0.901445 0.120845
vt 0.892862 0.028055
vt 0.830913 0.019950
vt 0.853301 0.025290
vt 0.847997 0.105241
vt 0.890878 0.022589
vt 0.890759 0.024936
vt 0.880418 0.038460
vt 0.899444 0.044112
vt 0.885608 0.084287
vt 0.870306 0.005351
vt 0.817246 0.069693
vn 0.000000 0.000000 1.000000
vn 0.000000 0.000000 1.000000
vn 0.000000 0.000000 1.000000
vn 0.000000 0.000000 1.000000
vn 0.000000 1.000000 0.000000
vn 0.000000 1.000000 0.000000
vn 0.000000 1.000000 0.000000
vn 0.000000 1.000000 0.000000
vn 0.000000 0.000000 -1.000000
vn 0.000000 0.000000 -1.000000
vn 0.000000 0.000000 -1.000000
vn 0.000000 0.000000 -1.000000
vn 0.000000 -1.000000 0.000000
vn 0.000000 -1.000000 0.000000
vn 0.000000 -1.000000 0.000000
vn 0.000000 -1.000000 0.000000
vn 1.000000 0.000000 0.000000
vn 1.000000 0.000000 0.000000
vn 1.000000 0.000000 0.000000
vn 1.000000 0.000000 0.000000
vn -1.000000 0.000000 0.000000
vn -1.000000 0.000000 0.000000
vn -1.000000 0.000000 0.000000
vn -1.000000 0.000000 0.000000
vn 0.000000 1.000000 0.000001
vn 0.000000 1.000000 0.000001
vn 0.000000 1.000000 0.000001
vn 0.000000 1.000000 0.000001
vn 0.000000 1.000000 0.000001
vn 0.000000 1.000000 -0.000001
vn 0.000000 1.000000 -0.000001
vn 0.000000 1.000000 0.000001
vn 0.000000 1.000000 -0.000001
vn 0.000000 1.000000 -0.000001
vn 0.000000 1.000000 -0.000001
vn 0.000000 1.000000 -0.000001
vn 0.000000 1.000000 -0.000001
vn 0.000000 1.000000 0.000001
vn 0.000000 1.000000 0.000001
vn 0.000000 1.000000 -0.000001
vn 0.000000 0.000000 -1.000000
vn 0.000000 0.000000 -1.000000
vn 0.000000 0.000000 -1.000000
vn 0.000000 0.000000 -1.000000
vn -1.000000 0.000000 0.000000
vn -1.000000 0.000000 0.000000
vn -1.000000 0.000000 0.000000
vn -1.000000 0.000000 0.000000
vn 0.000000 0.000000 1.000000
vn 0.000000 0.000000 1.000000
vn 0.000000 0.000000 1.000000
vn 0.000000 0.000000 1.000000
vn 1.000000 0.000000 0.000000
vn 1.000000 0.000000 0.000000
vn 1.000000 0.000000 0.000000
vn 1.000000 0.000000 0.000000
s off
g Shipyard:polySurface40 Shipyard:pCube109
usemtl Shipyard:blinn1SG
f 1/17/1 2/1/2 4/2/3 3/3/4
f 13/22/5 14/5/6 15/20/7 16/21/8
f 5/18/9 6/8/10 8/16/11 7/23/12
f 7/15/13 8/16/14 2/1/15 1/24/16
f 2/1/17 8/16/18 6/8/19 4/2/20
f 7/9/21 1/17/22 3/3/23 5/7/24
f 3/3/25 4/2/26 10/10/27 9/11/28
f 4/2/29 6/8/30 11/12/31 10/10/32
f 6/8/33 5/18/34 12/19/35 11/12/36
f 5/7/37 3/3/38 9/11/39 12/13/40
f 9/11/41 10/10/42 14/5/43 13/4/44
f 10/10/45 11/12/46 15/20/47 14/5/48
f 11/12/49 12/19/50 16/14/51 15/20/52
f 12/13/53 9/11/54 13/4/55 16/6/56
