# This file uses meters as units for non-parametric coordinates.

mtllib LargeTube.mtl
g default
v 2367.007403 -0.000002 -1324.975364
v 2349.314566 -0.000002 -1349.327489
v 2323.246445 -0.000002 -1364.377935
v 2293.310466 -0.000002 -1367.524343
v 2264.682833 -0.000002 -1358.222661
v 2242.313517 -0.000002 -1338.081247
v 2230.070383 -0.000002 -1310.582730
v 2230.070376 -0.000002 -1280.481853
v 2242.313506 -0.000002 -1252.983331
v 2264.682814 -0.000002 -1232.841913
v 2293.310449 -0.000002 -1223.540227
v 2323.246434 -0.000002 -1226.686620
v 2349.314562 -0.000002 -1241.737058
v 2367.007418 -0.000002 -1266.089181
v 2373.265742 -0.000002 -1295.532285
v 2367.007403 581.451475 -1324.975364
v 2349.314566 581.451475 -1349.327489
v 2323.246445 581.451475 -1364.377935
v 2293.310466 581.451475 -1367.524343
v 2264.682833 581.451475 -1358.222661
v 2242.313517 581.451475 -1338.081247
v 2230.070383 581.451475 -1310.582730
v 2230.070376 581.451475 -1280.481853
v 2242.313506 581.451475 -1252.983331
v 2264.682814 581.451475 -1232.841913
v 2293.310449 581.451475 -1223.540227
v 2323.246434 581.451475 -1226.686620
v 2349.314562 581.451475 -1241.737058
v 2367.007418 581.451475 -1266.089181
v 2373.265742 581.451475 -1295.532285
v 2300.877123 -0.000002 -1295.532285
v 2300.877123 581.451475 -1295.532285
vt 0.834495 0.141259
vt 0.776542 0.061473
vt 0.691152 0.012200
vt 0.593112 0.001847
vt 0.499392 0.032360
vt 0.426105 0.098330
vt 0.386017 0.188391
vt 0.386017 0.286976
vt 0.426105 0.377038
vt 0.499392 0.443007
vt 0.593112 0.473482
vt 0.691152 0.463129
vt 0.776542 0.413856
vt 0.834495 0.334070
vt 0.854967 0.237664
vt 0.001992 0.002509
vt 0.027290 0.002509
vt 0.052549 0.002509
vt 0.077886 0.002509
vt 0.103185 0.002509
vt 0.128444 0.002509
vt 0.153781 0.002509
vt 0.179040 0.002509
vt 0.204299 0.002509
vt 0.229597 0.002509
vt 0.254934 0.002509
vt 0.280193 0.002509
vt 0.305492 0.002509
vt 0.330751 0.002509
vt 0.356049 0.002509
vt 0.381347 0.002509
vt 0.001992 0.573001
vt 0.027290 0.573001
vt 0.052549 0.573001
vt 0.077886 0.573001
vt 0.103185 0.573001
vt 0.128444 0.573001
vt 0.153781 0.573001
vt 0.179040 0.573001
vt 0.204299 0.573001
vt 0.229597 0.573001
vt 0.254934 0.573001
vt 0.280193 0.573001
vt 0.305492 0.573001
vt 0.330751 0.573001
vt 0.356049 0.573001
vt 0.381347 0.573001
vt 0.977536 0.593200
vt 0.919584 0.513414
vt 0.834174 0.464141
vt 0.736134 0.453866
vt 0.642394 0.484302
vt 0.569127 0.550271
vt 0.529039 0.640294
vt 0.529039 0.738878
vt 0.569127 0.828979
vt 0.642394 0.894948
vt 0.736134 0.925384
vt 0.834174 0.915109
vt 0.919584 0.865836
vt 0.977536 0.786050
vt 0.998008 0.689644
vt 0.617904 0.228207
vt 0.760926 0.680109
vn 0.913545 0.000000 -0.406737
vn 0.669131 0.000000 -0.743145
vn 0.669131 0.000000 -0.743145
vn 0.913545 0.000000 -0.406737
vn 0.309017 0.000000 -0.951057
vn 0.309017 0.000000 -0.951057
vn -0.104528 0.000000 -0.994522
vn -0.104528 0.000000 -0.994522
vn -0.500000 0.000000 -0.866025
vn -0.500000 0.000000 -0.866025
vn -0.809017 0.000000 -0.587785
vn -0.809017 0.000000 -0.587785
vn -0.978148 0.000000 -0.207912
vn -0.978148 0.000000 -0.207912
vn -0.978148 0.000000 0.207912
vn -0.978148 0.000000 0.207912
vn -0.809017 0.000000 0.587785
vn -0.809017 0.000000 0.587785
vn -0.500000 0.000000 0.866025
vn -0.500000 0.000000 0.866025
vn -0.104529 0.000000 0.994522
vn -0.104529 0.000000 0.994522
vn 0.309017 0.000000 0.951057
vn 0.309017 0.000000 0.951057
vn 0.669131 0.000000 0.743145
vn 0.669131 0.000000 0.743145
vn 0.913546 0.000000 0.406737
vn 0.913546 0.000000 0.406737
vn 1.000000 0.000000 -0.000000
vn 1.000000 0.000000 -0.000000
vn 0.000000 -1.000000 0.000001
vn 0.000000 -1.000000 0.000001
vn 0.000000 -1.000000 0.000000
vn 0.000000 -1.000000 0.000000
vn 0.000000 -1.000000 0.000000
vn 0.000000 -1.000000 0.000000
vn 0.000000 -1.000000 0.000000
vn 0.000000 -1.000000 0.000000
vn 0.000000 -1.000000 0.000000
vn 0.000000 -1.000000 0.000000
vn 0.000000 -1.000000 0.000000
vn 0.000000 -1.000000 0.000000
vn 0.000000 -1.000000 0.000000
vn 0.000000 -1.000000 0.000001
vn 0.000000 -1.000000 0.000001
vn 0.000000 -1.000000 0.000000
vn 0.000000 1.000000 0.000001
vn 0.000000 1.000000 0.000001
vn 0.000000 1.000000 0.000000
vn 0.000000 1.000000 0.000000
vn 0.000000 1.000000 0.000000
vn 0.000000 1.000000 -0.000000
vn 0.000000 1.000000 0.000000
vn 0.000000 1.000000 0.000000
vn 0.000000 1.000000 0.000000
vn 0.000000 1.000000 0.000000
vn 0.000000 1.000000 0.000000
vn 0.000000 1.000000 0.000000
vn 0.000000 1.000000 -0.000000
vn 0.000000 1.000000 0.000000
vn 0.000000 1.000000 0.000000
vn 0.000000 1.000000 0.000000
s 1
g pCylinder16
usemtl initialShadingGroup
f 1/16/1 2/17/2 17/33/3 16/32/4
f 2/17/2 3/18/5 18/34/6 17/33/3
f 3/18/5 4/19/7 19/35/8 18/34/6
f 4/19/7 5/20/9 20/36/10 19/35/8
f 5/20/9 6/21/11 21/37/12 20/36/10
f 6/21/11 7/22/13 22/38/14 21/37/12
f 7/22/13 8/23/15 23/39/16 22/38/14
f 8/23/15 9/24/17 24/40/18 23/39/16
f 9/24/17 10/25/19 25/41/20 24/40/18
f 10/25/19 11/26/21 26/42/22 25/41/20
f 11/26/21 12/27/23 27/43/24 26/42/22
f 12/27/23 13/28/25 28/44/26 27/43/24
f 13/28/25 14/29/27 29/45/28 28/44/26
f 14/29/27 15/30/29 30/46/30 29/45/28
f 15/30/29 1/31/1 16/47/4 30/46/30
s 2
f 2/2/31 1/1/32 31/63/33
f 3/3/34 2/2/31 31/63/33
f 4/4/35 3/3/34 31/63/33
f 5/5/36 4/4/35 31/63/33
f 6/6/37 5/5/36 31/63/33
f 7/7/38 6/6/37 31/63/33
f 8/8/39 7/7/38 31/63/33
f 9/9/40 8/8/39 31/63/33
f 10/10/41 9/9/40 31/63/33
f 11/11/42 10/10/41 31/63/33
f 12/12/43 11/11/42 31/63/33
f 13/13/44 12/12/43 31/63/33
f 14/14/45 13/13/44 31/63/33
f 15/15/46 14/14/45 31/63/33
f 1/1/32 15/15/46 31/63/33
s 3
f 16/61/47 17/60/48 32/64/49
f 17/60/48 18/59/50 32/64/49
f 18/59/50 19/58/51 32/64/49
f 19/58/51 20/57/52 32/64/49
f 20/57/52 21/56/53 32/64/49
f 21/56/53 22/55/54 32/64/49
f 22/55/54 23/54/55 32/64/49
f 23/54/55 24/53/56 32/64/49
f 24/53/56 25/52/57 32/64/49
f 25/52/57 26/51/58 32/64/49
f 26/51/58 27/50/59 32/64/49
f 27/50/59 28/49/60 32/64/49
f 28/49/60 29/48/61 32/64/49
f 29/48/61 30/62/62 32/64/49
f 30/62/62 16/61/47 32/64/49
